<svg version="1.1" id="Layer_1" xmlns="http://www.w3.org/2000/svg" xmlns:xlink="http://www.w3.org/1999/xlink" x="0px" y="0px"
	 width="100%" viewBox="0 0 1024 576" enable-background="new 0 0 1024 576" xml:space="preserve">
<path fill="#000000" opacity="1.000000" stroke="none" 
	d="
M849.467957,577.000000 
	C842.079529,569.967651 835.358398,562.798645 832.807983,552.842285 
	C832.548157,551.828125 832.204102,550.778076 831.194946,550.469543 
	C823.923157,548.246399 821.669922,541.963379 819.772949,535.770996 
	C817.334290,527.810303 815.580933,519.646973 810.773743,512.609131 
	C810.154053,511.701935 809.654541,510.322876 809.854675,509.311890 
	C810.800110,504.536804 808.256836,501.376190 805.201599,498.395416 
	C803.572998,496.806549 801.930115,495.143036 803.886108,492.872498 
	C805.839966,490.604309 808.028992,491.355530 810.080566,492.925690 
	C813.239990,495.343628 817.018005,496.940796 819.595642,500.138763 
	C819.997498,500.637360 820.768433,501.426208 821.094849,501.310272 
	C826.624023,499.345703 827.980835,503.359985 830.194946,506.982483 
	C831.861816,509.709564 835.228027,510.170654 838.251221,508.949158 
	C841.485352,507.642426 843.064392,508.672882 843.415100,511.926025 
	C843.723938,514.790588 845.048706,516.822388 848.608032,518.618774 
	C851.951721,497.043304 849.376221,476.041809 849.719421,455.095062 
	C849.231628,454.970459 848.743896,454.845886 848.256104,454.721283 
	C845.969604,459.542877 843.387573,464.251465 841.487732,469.220856 
	C839.895081,473.386749 838.623352,477.721863 838.266968,482.273529 
	C837.856445,487.517090 836.765808,488.191864 831.725220,486.603973 
	C829.942200,486.042297 828.461670,486.208801 827.113892,487.464600 
	C826.382996,488.145538 825.731079,488.913513 824.981323,489.571381 
	C820.768066,493.267914 816.957275,493.932922 814.899719,491.361023 
	C812.708191,488.621613 813.443909,480.602539 816.541138,478.708282 
	C824.391663,473.906982 827.105225,466.288849 828.899902,457.966614 
	C829.276550,456.219910 830.200623,454.575043 830.992615,452.941498 
	C831.347290,452.209900 832.425598,451.637756 832.450256,450.966614 
	C832.739685,443.083557 839.699036,438.998718 842.714355,432.694122 
	C843.476746,431.100189 844.921509,429.124634 842.493408,427.997070 
	C840.609009,427.122009 839.568298,429.034088 838.690430,430.435364 
	C835.434204,435.633514 828.745483,437.842590 822.716614,435.683655 
	C820.273010,434.808594 818.150452,436.153900 815.973694,436.821991 
	C812.795288,437.797577 809.677979,438.978210 806.556335,440.130341 
	C805.036621,440.691223 803.410950,442.061707 802.032166,440.329559 
	C800.525208,438.436249 802.456787,437.412628 803.551636,436.247437 
	C803.885681,435.891907 804.122803,435.445251 804.584412,434.781219 
	C803.691284,432.750122 801.592590,431.105225 802.073242,428.256165 
	C802.378662,426.445557 800.737732,425.281189 798.814514,425.230316 
	C795.340454,425.138336 792.671631,422.740601 789.399841,422.048981 
	C788.073120,421.768555 786.828918,420.956665 787.073364,419.291290 
	C787.308350,417.689819 788.637329,417.175537 790.028259,417.143463 
	C791.685547,417.105286 793.359253,417.469330 795.006042,417.360168 
	C797.248901,417.211517 799.154297,416.525208 799.903137,413.918060 
	C800.547913,411.673187 800.889099,409.845062 798.655396,408.186523 
	C796.172791,406.343231 795.074707,403.904053 796.432129,400.740051 
	C797.210754,398.925140 795.953247,397.589417 794.962402,396.242126 
	C794.218140,395.230103 793.867004,394.147797 794.841492,393.076813 
	C795.779358,392.046082 797.032532,392.001434 798.027039,392.717194 
	C803.103882,396.371033 809.526001,396.328156 815.052917,399.310699 
	C820.831970,402.429443 827.921204,403.790222 834.880554,402.565613 
	C836.889160,402.212158 838.738342,402.280579 840.753113,402.530426 
	C844.057922,402.940247 846.735901,401.928864 848.378601,398.393829 
	C849.954041,395.003540 849.997192,391.300262 851.319397,387.895294 
	C851.622192,387.115417 851.146790,385.188629 850.783569,385.121582 
	C845.270996,384.103607 847.363464,376.490051 842.166016,375.289001 
	C841.767639,375.196930 841.280029,374.633545 841.185608,374.210754 
	C839.651245,367.336761 833.000549,365.836029 828.414917,362.269348 
	C825.975891,360.372284 824.912537,358.021088 826.142334,355.888855 
	C828.956482,351.009644 825.924744,347.939026 823.296814,344.962280 
	C821.453552,342.874329 820.268860,341.206299 821.411255,338.402039 
	C821.728394,337.623413 821.478699,336.283020 820.974487,335.558319 
	C818.864563,332.525909 818.421936,329.582184 820.418213,326.280609 
	C821.107971,325.139832 820.901001,323.448975 820.096863,322.436127 
	C816.989685,318.522369 818.656860,315.181580 820.928955,311.730255 
	C821.706421,310.549164 822.379517,309.477417 823.945984,309.550659 
	C825.505432,309.623566 826.430664,310.704132 826.812134,311.989532 
	C829.235046,320.153229 832.376465,319.916565 842.346313,318.523407 
	C843.233215,322.005219 844.591187,325.551208 844.977234,329.200073 
	C845.972717,338.608490 846.435242,348.072174 847.330566,357.492889 
	C847.651123,360.865295 849.274170,363.769684 851.863159,366.140656 
	C855.233398,369.226990 858.373474,368.454285 859.503540,363.961609 
	C859.901001,362.381378 859.803406,360.652771 859.779297,358.994141 
	C859.605469,347.048065 858.854980,335.086487 860.952759,323.211945 
	C861.122498,322.251160 861.419861,320.748505 860.934082,320.321808 
	C854.571411,314.733398 857.588440,306.820099 855.937988,300.101990 
	C855.113647,296.746460 854.547302,293.690247 851.651062,291.495117 
	C850.752747,290.814301 849.853577,289.885468 849.427002,288.871521 
	C846.592651,282.134308 843.842163,275.360565 841.168152,268.557953 
	C840.442261,266.711243 839.996033,264.763977 840.510559,262.693146 
	C841.039612,260.563538 840.198608,258.631592 838.753601,257.208588 
	C832.273865,250.827271 828.007935,243.147507 825.168152,234.606445 
	C824.218323,231.749741 823.418518,228.827393 824.251465,225.786987 
	C824.838806,223.643036 823.907959,221.894012 823.030701,220.086487 
	C821.796082,217.542557 820.538940,215.004929 819.437378,212.402817 
	C818.799744,210.896515 819.063538,209.394501 820.547607,208.437820 
	C822.058655,207.463776 823.638428,207.840485 824.529175,209.199341 
	C827.130432,213.167740 832.155151,211.706757 835.468994,214.309769 
	C836.991638,215.505829 837.989685,213.268799 838.155029,211.776505 
	C838.484375,208.805008 838.560364,205.806046 838.771179,202.820587 
	C839.019531,199.303116 838.021667,195.581696 841.999023,192.999878 
	C843.769653,191.850479 842.269958,189.296005 841.962097,187.363647 
	C841.509583,184.523560 840.765381,181.508163 845.418396,181.429642 
	C846.318726,181.414459 847.549133,180.268433 848.026794,179.336349 
	C850.650208,174.216934 854.437927,175.221069 858.562012,176.994308 
	C864.075562,179.364960 865.229431,178.779221 866.941406,172.952316 
	C867.978699,169.421814 869.132690,165.918015 871.279236,162.907425 
	C874.439575,158.475143 876.026794,153.534180 876.021179,148.143631 
	C882.338928,148.722412 885.213257,151.691833 884.698242,157.651978 
	C884.380859,161.324051 884.379944,164.017883 888.849854,164.350159 
	C891.552307,164.551056 896.712219,160.784790 897.199829,158.288101 
	C898.485718,151.703140 898.485413,151.704224 904.840088,153.526962 
	C905.158081,153.618164 905.487976,153.701874 905.816040,153.719177 
	C908.403931,153.855682 911.723755,153.120377 912.241028,156.771210 
	C912.688416,159.928238 909.401672,160.403366 907.397766,161.725861 
	C904.686523,163.515198 901.521057,164.872910 900.441162,168.131287 
	C901.063354,169.826660 902.218323,169.239944 903.133118,169.297577 
	C904.412048,169.378143 905.408020,169.854965 905.814880,171.131638 
	C906.287537,172.614609 905.601685,173.745132 904.496643,174.625900 
	C902.408203,176.290314 900.241394,177.676514 897.497620,178.260025 
	C892.361572,179.352295 890.962952,181.700638 891.901611,186.815460 
	C892.201965,188.452148 892.510742,190.087372 892.800964,191.725845 
	C893.679688,196.686584 892.687927,197.556183 887.878540,195.842285 
	C886.601929,195.387360 885.513611,195.319855 884.797913,196.460526 
	C883.760132,198.114563 883.864868,199.954803 884.551208,201.736084 
	C885.004333,202.912064 887.113831,202.937912 886.697144,204.754578 
	C881.144592,205.245392 879.007324,208.219070 880.866577,213.874161 
	C881.831726,216.809814 881.174500,220.150330 883.143005,223.164963 
	C885.891663,221.164200 885.614868,217.863464 887.375854,215.745377 
	C888.437805,214.467957 889.257751,212.739960 891.270142,213.211349 
	C893.426147,213.716431 893.973633,215.602081 893.958130,217.501633 
	C893.933777,220.493790 893.621887,223.482513 893.539856,226.475662 
	C893.491882,228.226639 892.811951,230.138336 894.691956,231.902405 
	C896.817688,229.076462 896.304932,226.021042 896.223389,222.964294 
	C896.142212,219.919754 895.355957,215.356323 899.549072,215.356323 
	C904.388977,215.356323 902.984253,220.148315 902.863770,223.218857 
	C902.297852,237.638672 898.269531,251.026993 890.459839,263.223541 
	C890.193115,263.640076 889.750488,264.199036 889.853210,264.559845 
	C892.696716,274.554443 883.792053,282.071411 884.184082,291.571625 
	C884.304321,294.484833 883.166138,296.911346 879.546509,296.677032 
	C878.428589,296.604645 877.487244,296.785126 877.072754,297.858185 
	C875.238647,302.606110 873.470276,307.378662 874.687927,313.429474 
	C878.756714,308.425323 884.341125,306.191315 887.339905,300.889740 
	C890.622803,295.085846 896.904297,294.090424 902.770386,292.806000 
	C905.433838,292.222748 906.197510,293.945618 906.405640,296.291016 
	C906.962158,302.562714 904.837402,308.483459 903.336914,314.296722 
	C901.365906,321.932281 897.729858,329.137848 894.812988,336.529572 
	C893.213135,340.583710 891.217346,344.365234 888.076965,347.504150 
	C886.346924,349.233307 885.033630,351.474976 887.234253,353.616241 
	C889.831482,356.143311 888.914246,358.424866 887.247864,360.705231 
	C884.404297,364.596619 881.449158,368.407959 878.477844,372.203552 
	C877.477417,373.481598 875.684448,374.507111 876.736328,376.424500 
	C877.729675,378.235229 879.436951,379.491180 881.552063,379.606262 
	C887.644714,379.937775 893.647217,381.411438 899.570251,382.384399 
	C904.891296,383.258392 910.547424,386.746552 914.225342,391.753693 
	C914.692810,392.390137 915.161255,393.398712 914.990479,394.073273 
	C913.352661,400.545380 913.852478,407.587921 908.908386,413.168488 
	C904.898315,417.694702 900.312256,421.247314 895.220459,424.398651 
	C887.092651,429.428864 882.019226,437.461212 876.510193,444.890686 
	C873.586731,448.833130 871.789124,453.653442 868.831482,457.704315 
	C865.194824,462.685242 866.330688,468.621368 865.832520,474.161255 
	C864.538208,488.553558 865.360107,502.980255 865.959717,517.687195 
	C869.232605,507.362518 879.600464,501.793335 882.368042,490.967560 
	C883.705566,485.735687 887.552917,481.078766 889.065002,475.602142 
	C889.347595,474.578735 890.327698,473.924988 891.426025,474.242676 
	C892.977722,474.691589 893.362793,476.070923 893.150818,477.453247 
	C892.597107,481.065796 891.752197,484.647064 892.508789,488.324524 
	C899.632080,491.224335 901.140137,494.544708 897.199890,501.163635 
	C893.657837,507.113586 893.101135,513.329407 893.418030,519.896057 
	C893.852417,528.899109 889.245911,532.983154 880.357117,531.187500 
	C879.369263,534.834778 876.031311,537.219788 874.759583,540.764648 
	C878.302551,543.856873 880.397217,540.610901 883.093628,539.512634 
	C889.361450,536.959900 893.711487,532.956116 895.132751,526.145752 
	C895.368958,525.014099 895.725647,523.875549 896.232666,522.841187 
	C896.770996,521.742859 897.690796,520.927734 899.053406,521.431458 
	C900.133301,521.830688 900.372986,522.790222 900.355530,523.874634 
	C900.221924,532.173340 896.536072,539.195496 892.377502,546.038208 
	C892.052979,546.572266 891.429688,547.193054 890.871338,547.276001 
	C884.217773,548.264771 881.885681,551.885803 882.454224,558.650696 
	C882.814819,562.941467 880.279175,566.517883 875.675781,568.102661 
	C871.625549,569.496826 870.755493,574.277466 867.170044,576.713745 
	C861.311951,577.000000 855.623962,577.000000 849.467957,577.000000 
M862.086609,201.299652 
	C861.327209,198.350525 859.251953,196.576675 856.787842,195.005539 
	C855.007568,193.870392 852.595581,192.459335 853.626038,189.981964 
	C855.071472,186.506943 853.125854,184.811295 850.634827,184.699188 
	C847.373962,184.552444 848.376404,187.770615 848.358643,189.684418 
	C848.262390,200.050964 851.649231,210.061737 852.447205,220.110718 
	C853.365540,231.675644 858.145569,241.435059 861.478638,251.916718 
	C861.848267,253.078873 862.538452,254.136520 863.800842,254.268524 
	C865.483704,254.444534 866.091919,253.043488 866.422119,251.762283 
	C867.176025,248.837555 868.039062,245.415176 866.749146,242.923492 
	C862.924622,235.535309 866.371521,228.392197 867.567200,221.594742 
	C868.959534,213.679382 867.299072,207.669128 862.086609,201.299652 
M887.101685,412.803467 
	C889.504822,406.118652 895.491455,402.765503 900.450806,398.460480 
	C901.727661,397.352081 903.111877,396.263184 902.478699,394.314087 
	C902.007141,392.862579 900.649902,392.481873 899.296448,392.318207 
	C893.700684,391.641602 888.073303,391.494598 882.520813,392.437408 
	C875.488464,393.631500 873.341980,396.118774 872.096436,403.335571 
	C871.759705,405.286407 870.919922,407.150330 870.582153,409.101105 
	C870.169006,411.487732 868.806152,414.514099 871.079895,416.116760 
	C873.382080,417.739441 876.060730,415.672211 878.475952,414.773834 
	C878.914307,414.610809 879.306885,414.202362 879.610596,413.819885 
	C881.684448,411.208252 884.047913,411.455261 887.101685,412.803467 
M843.050171,207.051819 
	C841.974365,213.446701 844.536865,218.766693 848.326477,225.065704 
	C848.573425,220.166199 846.654663,216.999924 845.979919,213.590439 
	C845.293518,210.121460 844.439148,206.685715 843.658386,203.235413 
	C843.468079,203.264328 843.277771,203.293259 843.087463,203.322189 
	C843.087463,204.307678 843.087463,205.293182 843.050171,207.051819 
M844.818054,532.018555 
	C843.357666,534.489868 844.075317,537.100159 844.415894,539.653931 
	C844.550537,540.663818 845.327637,541.429688 846.425964,541.512451 
	C847.321472,541.579895 848.184998,541.036804 848.278442,540.216797 
	C848.648254,536.971191 850.205933,533.246887 844.818054,532.018555 
z"/>
<path fill="#000000" opacity="1.000000" stroke="none" 
	d="
M103.468658,577.000000 
	C102.921837,565.179504 102.866821,553.358826 102.754974,541.538696 
	C102.705040,536.261902 101.901665,535.678406 96.842697,536.764038 
	C95.221550,537.111938 93.554939,537.555420 91.925758,537.496460 
	C88.189812,537.361145 83.526947,536.519470 82.946571,532.853516 
	C82.393311,529.358826 82.995033,524.637756 88.015511,522.679993 
	C91.047546,521.497620 94.171783,520.247803 96.719185,517.902954 
	C101.052490,513.914124 101.084885,509.448547 95.930817,506.476898 
	C90.613350,503.411011 87.710037,498.268982 84.256569,493.761475 
	C81.323280,489.932892 83.387238,484.561951 83.034424,479.913574 
	C82.873032,477.787201 85.816841,478.241608 87.281845,479.722870 
	C88.915565,481.374695 90.269737,483.302307 91.896362,484.962097 
	C93.113411,486.203949 94.393158,488.147736 96.483421,486.611908 
	C98.130562,485.401611 98.389595,483.292664 97.674339,481.588806 
	C95.573830,476.585236 93.717514,471.267883 86.962440,470.646851 
	C82.058731,470.196045 78.841812,467.212463 76.523621,463.031128 
	C75.276367,460.781464 73.768890,459.455505 70.632210,459.467743 
	C63.502953,459.495605 58.605244,454.199951 58.098541,447.162537 
	C57.967583,445.343719 59.996986,444.873047 59.927963,443.278259 
	C59.807716,442.964722 59.733116,442.630798 59.567875,442.350311 
	C58.380695,440.335052 53.855606,439.294159 56.734245,436.145935 
	C59.252357,433.391998 62.888535,433.291931 66.867966,434.171509 
	C74.003807,435.748810 78.327133,441.077209 83.609070,445.166565 
	C84.989853,446.235565 86.440804,447.139923 88.176079,446.399017 
	C90.046394,445.600433 90.237534,443.634583 89.935486,442.090759 
	C88.740921,435.984955 91.989952,430.387451 91.717087,424.426331 
	C91.437073,418.308929 89.071465,416.046265 83.279587,417.903595 
	C78.560272,419.416992 75.211540,418.371582 72.038589,415.238464 
	C68.589508,411.832794 64.128334,410.243286 59.765247,408.778748 
	C55.154266,407.231049 52.273502,405.456116 55.845081,399.966339 
	C48.641285,397.927429 49.594070,392.908630 50.928814,387.962891 
	C51.376469,386.304138 51.699955,384.739807 50.050457,384.106812 
	C43.201061,381.478455 43.271778,374.460602 40.271622,369.665771 
	C40.873341,367.642456 42.427040,367.979034 43.640507,367.600189 
	C48.054100,366.222260 49.446068,362.909668 46.594173,359.209015 
	C42.914196,354.433838 40.233929,348.518127 33.703682,346.529785 
	C32.667454,346.214264 31.884483,345.115112 30.940638,344.439423 
	C27.454206,341.943420 26.217644,339.288086 30.653898,336.338165 
	C28.618315,333.153900 26.154863,331.129761 22.823139,330.134033 
	C21.074371,329.611328 18.803453,329.104126 19.382143,326.717102 
	C19.945951,324.391449 22.197437,324.495514 23.935133,325.282013 
	C29.780451,327.927673 35.494282,326.912048 41.274139,325.121338 
	C43.816372,324.333679 46.557453,324.465485 48.093227,326.811493 
	C52.867519,334.104431 60.859909,334.670013 68.123154,336.649261 
	C70.223930,337.221741 72.561226,338.171356 75.597412,336.925049 
	C72.240059,329.442261 68.994659,322.028870 65.591248,314.688751 
	C63.426968,310.021057 61.055309,305.504791 61.231144,300.089630 
	C61.285789,298.406860 60.603909,296.668915 62.499607,295.756012 
	C64.559052,294.764160 65.955780,296.132965 67.209091,297.549133 
	C67.759781,298.171387 68.194283,298.900269 68.768288,299.497345 
	C70.362640,301.155792 72.403542,301.225494 74.319153,300.486694 
	C76.375900,299.693512 75.601578,297.738953 75.603943,296.123596 
	C75.615341,288.320984 74.666931,280.635742 72.994438,273.021729 
	C72.619911,271.316711 72.956322,269.678894 74.523537,268.570679 
	C76.922836,266.874054 78.434921,269.586029 80.426392,269.845154 
	C82.856644,265.000549 81.965408,259.904877 77.427910,255.543961 
	C74.622086,252.847321 74.470757,250.895187 77.979591,249.017334 
	C78.912842,248.517883 79.628418,247.911591 79.839424,246.835281 
	C81.011795,240.855377 84.954353,235.768555 85.306755,229.481323 
	C85.414330,227.562042 86.071571,225.444412 87.129265,223.850372 
	C90.329773,219.026901 92.597321,213.983261 92.683777,208.087616 
	C92.708618,206.393860 93.032318,204.496994 95.155510,204.319794 
	C97.346443,204.136902 97.632912,206.045441 98.091728,207.677963 
	C99.309616,212.011383 100.050232,216.379776 100.465416,220.895340 
	C101.097481,227.769867 104.478546,234.028336 104.947945,241.331436 
	C109.835342,239.899780 111.183983,236.320770 113.188042,233.427338 
	C114.384850,231.699402 115.080666,229.026428 117.867554,229.893829 
	C120.415749,230.686920 119.405800,233.105713 119.512459,235.042984 
	C119.946365,242.924072 115.609848,249.028702 111.868401,255.242432 
	C109.878044,258.547943 108.590363,261.713379 109.078995,265.552490 
	C109.352180,267.698944 109.519424,269.859161 109.718948,272.014618 
	C110.331375,278.630615 110.964882,285.112335 107.491241,291.418427 
	C104.512268,296.826477 106.452629,302.156830 109.577873,307.122528 
	C111.020958,302.836548 109.538185,298.613678 109.270927,294.403107 
	C109.098099,291.680389 109.170311,289.429779 111.940086,288.092224 
	C115.002411,286.613434 117.509941,288.158112 116.980400,291.522827 
	C116.199692,296.483490 116.612846,300.765869 120.430389,304.652802 
	C122.514404,306.774689 120.739693,310.129791 121.118523,312.901703 
	C121.355957,314.638977 120.658966,317.268768 122.980659,317.537323 
	C129.196472,318.256287 131.384827,320.967072 128.200485,326.438751 
	C129.699402,327.883881 130.560181,327.098328 131.351212,326.582977 
	C133.070755,325.462677 134.729294,324.907440 136.088852,326.984314 
	C137.400757,328.988464 136.099380,330.398956 134.823029,331.798157 
	C132.740234,334.081421 129.936005,335.242676 127.297348,336.636627 
	C123.720016,338.526398 121.840652,341.089111 122.238274,345.436768 
	C122.615837,349.565125 122.399872,353.764648 122.205772,357.921722 
	C122.097374,360.243530 122.605545,363.009827 118.619034,363.205444 
	C116.490356,363.309875 117.010735,365.791199 117.018120,367.361084 
	C117.042404,372.524384 117.223442,377.686890 117.255096,382.850250 
	C117.266014,384.631653 117.828026,386.508209 116.498672,388.148834 
	C115.585945,389.275299 115.914398,390.332031 117.036697,391.142853 
	C117.811493,391.702545 118.608231,391.543152 119.356384,391.045746 
	C120.447281,390.320496 121.151642,389.211761 120.417427,388.080994 
	C117.603638,383.747498 119.518341,378.960724 118.946838,374.421875 
	C118.368813,369.831238 122.414658,367.543030 124.783798,364.658356 
	C126.278618,362.838287 128.707581,364.718811 129.615616,366.523224 
	C132.996536,373.241699 137.329285,379.893097 132.644669,387.829681 
	C131.725479,389.386963 131.031799,391.148926 131.430099,393.081299 
	C131.769455,394.727570 132.009598,396.443817 134.197433,396.691467 
	C136.175049,396.915283 137.850876,395.931030 137.957047,394.199341 
	C138.262283,389.220184 143.534866,387.022278 144.187408,382.212769 
	C144.467392,380.149078 146.763596,380.446045 148.399826,380.790985 
	C151.667465,381.479797 154.110413,381.118652 155.545227,377.447662 
	C156.445877,375.143372 164.144257,374.180756 166.131393,375.762878 
	C167.356827,376.738617 167.311554,378.069763 166.997147,379.418030 
	C165.962509,383.854645 165.977646,388.310822 166.774139,392.769897 
	C167.029236,394.197937 167.009537,395.808319 165.620789,396.256531 
	C158.885300,398.430359 156.784286,404.953918 152.746964,409.640228 
	C151.446365,411.149902 150.519867,412.976044 148.199020,413.177521 
	C146.382614,413.335236 145.798340,414.764618 145.370621,416.254089 
	C144.019119,420.960449 140.733032,424.704346 138.947983,429.192810 
	C137.642746,432.474854 134.220169,431.733551 131.994843,432.694855 
	C131.140259,434.153778 131.824326,435.187805 132.167191,436.288757 
	C133.605576,440.907654 132.434143,442.659180 127.734322,442.202301 
	C125.831329,442.017334 124.987320,442.635925 124.118904,443.980286 
	C121.922554,447.380341 120.208069,450.849884 120.329063,455.120270 
	C120.517723,461.778900 120.417442,468.447296 120.352051,475.110718 
	C120.329002,477.459106 120.811340,479.395782 123.468712,480.519928 
	C125.710495,479.467957 127.201080,477.666962 127.813614,475.100189 
	C129.325668,468.764099 130.306030,462.364258 129.530472,455.842499 
	C129.215530,453.194061 128.842422,450.359100 132.269287,450.025787 
	C135.583893,449.703400 139.710632,449.008301 140.914688,453.720642 
	C141.639084,456.555695 142.704742,459.448883 141.982559,462.916016 
	C143.096054,459.024994 146.232666,457.690338 148.892654,459.048431 
	C152.815552,461.051361 156.289886,460.092926 159.999222,459.392395 
	C163.272690,458.774170 163.976379,460.284088 162.963089,463.049042 
	C162.393814,464.602448 161.972061,466.489929 160.837387,467.502441 
	C157.723312,470.281219 157.177246,473.278259 157.985626,477.313934 
	C158.924393,482.000580 156.427917,484.263336 152.003998,482.860138 
	C144.789474,480.571808 139.430725,485.878021 133.058945,486.872192 
	C132.913879,486.894836 132.686127,487.051880 132.673752,487.165527 
	C132.051346,492.875519 126.827972,497.047424 126.308197,502.125366 
	C125.579124,509.248047 127.124672,516.688599 128.308350,523.892761 
	C129.123001,528.850891 131.391449,529.404480 135.342041,526.400024 
	C135.473984,526.299622 135.576080,526.090271 135.710449,526.072754 
	C141.845535,525.274719 143.336456,522.395325 141.040924,516.468018 
	C139.962250,513.682800 145.068130,511.801361 149.109802,514.264404 
	C152.170990,516.129883 154.776764,516.935425 158.386826,516.141663 
	C161.293335,515.502563 162.907837,518.203674 161.958160,520.647034 
	C159.943176,525.830994 162.996140,529.938232 164.199890,534.387024 
	C164.724960,536.327576 166.198532,538.048584 164.263092,539.765930 
	C162.405960,541.413818 160.434433,540.694397 158.903320,539.167725 
	C156.217194,536.489441 154.140198,537.396545 151.660553,539.636169 
	C149.210800,541.848816 146.346268,543.625061 143.559845,545.432617 
	C142.160187,546.340515 140.241302,547.181030 138.863571,546.004578 
	C134.844055,542.572205 131.995850,545.968018 129.150558,547.658569 
	C126.061157,549.494141 128.318832,552.237122 128.664688,554.785400 
	C129.647125,562.024109 133.474060,568.647827 133.064667,576.567749 
	C123.312439,577.000000 113.624878,577.000000 103.468658,577.000000 
M73.406509,373.738892 
	C74.520294,373.438599 75.671684,373.234680 76.740028,372.817902 
	C78.957512,371.952850 80.415993,370.510895 79.840714,367.874878 
	C79.234901,365.099030 77.288818,363.891815 74.693962,364.394379 
	C71.694542,364.975311 68.438919,364.433441 65.441071,366.084320 
	C66.372719,370.291138 67.749588,373.647278 73.406509,373.738892 
M61.727222,363.336578 
	C63.096603,360.875793 63.627506,358.285553 60.191315,357.505280 
	C58.103981,357.031311 54.753845,354.871857 53.636299,358.158569 
	C52.414833,361.750885 56.204254,362.537323 58.648399,363.683044 
	C59.312199,363.994202 60.256176,363.707703 61.727222,363.336578 
M118.310020,404.823700 
	C117.934326,408.460449 117.452179,412.107452 119.217659,415.566681 
	C119.891991,411.792999 120.305389,408.032562 120.255333,404.278320 
	C120.232681,402.579132 119.154831,403.125519 118.310020,404.823700 
z"/>
<path fill="#000000" opacity="1.000000" stroke="none" 
	d="
M447.375000,577.000000 
	C443.841095,573.606445 444.770111,571.247925 448.704742,569.303162 
	C451.157013,568.091003 453.772552,567.296143 456.350464,567.143311 
	C461.909271,566.813782 462.523468,563.933716 461.108063,559.264954 
	C456.755676,558.894287 452.625763,560.669556 448.291809,560.293823 
	C442.782440,559.816162 441.774323,558.571350 443.660950,553.458862 
	C444.176910,552.060608 444.993378,550.646606 445.032776,549.222168 
	C445.164978,544.442810 441.947083,542.123718 437.194977,543.313904 
	C436.717377,543.433533 436.209259,543.490112 435.718201,543.475830 
	C435.405670,543.466675 435.098541,543.272827 434.344452,543.002380 
	C436.014771,540.178223 430.925659,536.348022 436.483032,534.098572 
	C435.291260,532.845703 434.404633,531.913635 433.663574,531.134583 
	C433.275482,528.850403 438.150848,523.358032 440.656952,523.103088 
	C444.024017,522.760498 447.705933,523.419983 447.864349,518.019592 
	C447.924774,515.960205 450.897034,515.833740 452.753571,515.172546 
	C454.388428,514.590271 456.499786,515.655334 458.229767,513.122742 
	C453.485992,512.231628 449.866638,509.516083 444.553619,511.020355 
	C437.629456,512.980774 430.177032,514.419739 424.015472,508.258057 
	C421.744171,505.986694 421.475006,504.926727 424.990295,503.496552 
	C427.968903,502.284760 430.494141,501.354553 433.910767,501.664978 
	C437.036743,501.948975 440.407227,500.540253 443.293701,498.696564 
	C445.616302,497.212982 447.652527,495.149384 450.556396,498.555511 
	C451.932892,500.170044 454.981842,498.532440 456.134247,496.939728 
	C457.865417,494.547028 457.580353,491.374573 456.334503,488.808502 
	C455.320587,486.720184 453.514618,487.851288 452.152802,488.968170 
	C451.151642,489.789246 450.101654,489.885803 448.886261,489.502350 
	C445.600464,488.465546 442.440155,488.543457 439.098724,491.717926 
	C437.645538,485.903198 433.597534,483.017395 429.538025,480.136780 
	C428.997864,479.753448 428.519135,478.906158 428.014130,478.907898 
	C421.748077,478.929504 422.480774,473.566162 420.664825,470.050690 
	C423.318329,467.905243 425.241516,470.986786 427.356964,470.498718 
	C429.144165,469.579468 427.552734,466.989532 429.624969,466.339447 
	C429.782562,466.320709 430.063080,466.244141 430.089691,466.296478 
	C432.891479,471.814728 437.600708,472.939758 443.226807,472.110016 
	C443.989716,471.997467 445.373932,472.681671 445.537201,472.418365 
	C449.728699,465.657227 453.269897,471.500244 457.021759,472.931488 
	C457.319824,473.045166 457.664734,473.036041 458.612549,473.176727 
	C460.836121,468.947388 459.803040,464.301178 459.547760,459.846222 
	C459.253357,454.708771 458.092926,449.601898 458.046112,444.475006 
	C458.005524,440.025085 456.296051,436.836761 453.097046,434.107208 
	C450.563812,431.945770 448.225983,429.522400 445.531036,427.592896 
	C442.989227,425.773132 441.909180,423.562988 441.571869,420.513947 
	C441.214172,417.280792 440.656250,413.926086 438.145599,411.794556 
	C435.221008,411.492950 434.604736,415.449799 431.512512,414.350616 
	C430.264038,411.852203 432.115723,410.078400 433.670868,409.007507 
	C439.089081,405.276550 436.112946,399.952515 436.315979,395.408112 
	C436.414581,393.201538 433.536621,393.045929 431.457275,393.840210 
	C429.972015,394.407623 429.111847,396.358978 427.133575,395.839508 
	C426.862854,395.606262 426.404938,395.397430 426.401978,395.182220 
	C426.309631,388.545654 423.398102,384.991699 416.451508,383.734406 
	C405.852753,381.816071 395.440430,378.867859 384.948547,376.358582 
	C384.300507,376.203583 383.601837,376.166901 383.007965,375.896637 
	C381.207397,375.077271 377.698822,375.434937 378.486511,372.501526 
	C379.272583,369.574036 382.145477,371.249603 384.056549,371.876068 
	C388.369019,373.289703 392.836823,373.797089 397.281525,374.455780 
	C398.250305,374.599365 399.686340,374.899384 400.181458,374.403198 
	C403.937653,370.638794 407.478363,373.107941 411.113525,374.494690 
	C418.053955,377.142365 425.271271,378.119720 432.669159,377.917175 
	C434.383270,377.870300 436.235535,377.794800 436.447205,375.575714 
	C436.633118,373.626801 435.475494,372.567932 433.524414,372.223206 
	C425.778107,370.854370 420.904755,365.006287 415.753601,360.004700 
	C412.734436,357.073273 409.377014,354.789185 406.138458,352.256775 
	C404.495605,350.972168 402.762024,351.405945 400.926697,351.989532 
	C398.935486,352.622711 396.660675,353.528442 395.541168,350.560547 
	C396.552307,347.959076 400.265228,349.667480 401.188263,346.589142 
	C398.455109,343.460663 394.366516,341.659943 391.413788,338.668915 
	C387.836212,335.044952 385.586670,332.947937 379.908844,336.656281 
	C374.932892,339.906189 369.927612,341.151001 369.041443,348.540955 
	C368.653931,351.772156 364.228271,355.600464 360.747833,357.113098 
	C356.113770,359.127106 352.832733,362.427002 349.084747,365.348602 
	C348.036377,366.165802 346.931702,366.925659 345.786743,367.599396 
	C344.878387,368.133942 343.845093,368.265381 343.071625,367.340973 
	C342.094818,366.173584 342.668732,365.141052 343.594971,364.293671 
	C345.436890,362.608643 347.417511,361.066681 349.176727,359.302032 
	C351.097595,357.375305 353.865143,355.850098 352.989502,352.303955 
	C352.874329,351.837555 353.411438,350.819763 353.858215,350.663757 
	C360.221802,348.441681 362.252625,341.274109 367.993652,338.360535 
	C369.262451,337.716644 370.041168,336.610229 369.710938,335.079376 
	C369.336761,333.344940 367.918274,333.353851 366.561096,333.335907 
	C362.731110,333.285278 358.925690,333.202881 355.149994,332.299438 
	C351.073944,331.324188 349.234680,334.471161 347.156158,337.073273 
	C345.373993,339.304443 344.236603,342.350647 340.485168,342.606689 
	C339.301849,338.869446 342.320740,336.639740 343.249481,333.376587 
	C341.720673,331.731323 340.839722,329.684570 340.205963,327.073334 
	C338.979889,322.021667 341.535309,321.958344 344.469879,322.854675 
	C349.673706,324.444092 354.779694,324.807251 360.124451,323.460083 
	C363.064178,315.425201 355.444122,312.029236 347.712006,311.619843 
	C345.408356,311.497864 343.075897,311.602905 340.786804,311.188171 
	C339.727783,310.996307 338.923218,310.344727 339.046967,309.136627 
	C339.173615,307.900513 340.197601,307.745117 341.198761,307.474976 
	C345.328369,306.360748 349.416107,305.108551 353.469696,307.803070 
	C354.088562,308.214447 355.037262,308.129669 355.777924,308.264282 
	C357.877899,306.072906 356.524536,304.107819 355.919556,302.109436 
	C355.466125,300.611633 354.178162,298.779022 356.404938,297.774078 
	C358.221649,296.954193 359.088013,298.632996 359.808319,299.918427 
	C361.769592,303.418579 365.236847,305.244507 368.227905,307.577484 
	C370.052490,309.000610 372.333313,309.290161 374.361053,308.181763 
	C376.297638,307.123291 375.934967,305.021759 375.635529,303.221649 
	C374.745514,297.870392 377.115509,292.990234 378.359100,288.119629 
	C380.304565,280.499939 381.391724,272.792114 382.710236,265.095886 
	C383.046844,263.131378 383.218445,261.104797 385.464630,260.266327 
	C388.190338,261.442719 387.428345,263.741852 387.082977,265.493988 
	C384.854126,276.801971 383.989349,288.211090 384.141937,299.713776 
	C384.172180,301.991272 383.043335,303.873169 382.168030,305.837982 
	C380.236603,310.173584 382.069672,314.205048 386.866455,314.653076 
	C389.652191,314.913269 391.959930,315.768677 394.953217,317.588135 
	C395.701935,313.239563 396.110443,309.251801 397.699768,305.551300 
	C399.241089,301.962433 398.454468,297.667328 401.207489,294.286987 
	C402.493103,292.708466 401.148804,290.727203 400.220276,289.177490 
	C396.509949,282.985046 394.495850,276.064636 391.661133,269.498566 
	C390.890045,267.712555 389.552063,265.254181 391.887726,264.179291 
	C394.659515,262.903717 394.856934,265.978363 395.568512,267.647034 
	C397.070129,271.168274 398.353455,274.782471 399.846252,278.307709 
	C400.594208,280.074036 401.040924,282.233917 403.895233,282.574951 
	C408.821808,276.022827 407.000000,269.095612 404.403320,262.425995 
	C402.588379,257.764282 400.705627,253.154495 399.452148,248.307709 
	C399.038971,246.710144 398.217102,244.722916 400.513885,244.129349 
	C402.659515,243.574875 403.201050,245.618439 403.726349,247.186996 
	C406.102600,254.282516 408.422852,261.396820 410.802673,268.491119 
	C411.318359,270.028351 411.090546,271.881226 412.733154,273.088165 
	C415.347992,273.086731 416.320221,270.454071 418.287048,269.362244 
	C419.375916,268.757782 420.479431,268.292480 421.471405,269.328400 
	C422.486389,270.388306 422.020935,271.530823 421.172913,272.442200 
	C419.243896,274.515259 417.600128,277.241943 415.208374,278.423676 
	C407.978210,281.996002 407.935425,289.057922 406.347168,295.298645 
	C404.179535,303.815643 405.198669,313.066010 399.998932,320.930481 
	C398.436005,323.294342 401.182159,324.548370 402.882446,325.211243 
	C405.572510,326.260071 407.788727,325.286835 408.781555,322.383667 
	C410.389160,317.682831 411.941925,312.963226 413.509216,308.248657 
	C413.823608,307.302826 414.027863,306.314240 414.410706,305.398804 
	C414.930237,304.156525 415.587799,302.718750 417.225281,303.125946 
	C419.152985,303.605347 419.064423,305.181671 418.607697,306.762512 
	C416.299591,314.751404 414.652527,322.948120 411.357605,330.625671 
	C410.341919,332.992310 410.256622,334.898834 411.892059,337.083191 
	C417.176514,344.141235 422.274231,351.338837 427.483551,358.453613 
	C428.251648,359.502686 429.113617,360.612579 431.753357,360.099762 
	C430.107727,354.290344 428.529083,348.525330 426.801208,342.805389 
	C426.510284,341.842316 425.297974,341.624542 424.296783,341.382294 
	C420.991638,340.582611 420.269104,339.137085 423.251129,336.854828 
	C426.014679,334.739807 424.498566,331.991333 424.270111,329.475220 
	C424.078735,327.367188 423.059875,325.171356 425.195618,323.471924 
	C425.908783,322.904419 426.797211,322.980377 427.548401,323.432343 
	C429.798950,324.786407 429.632111,326.982910 429.526733,329.188263 
	C429.442261,330.955963 428.650360,333.127075 430.664459,334.174133 
	C432.025208,334.881500 433.932922,335.248688 434.705444,333.135162 
	C434.520386,330.503052 431.374176,332.776764 430.849792,329.795715 
	C434.459442,329.455505 438.374573,330.001526 441.495178,327.136292 
	C443.593811,331.544952 440.561188,333.965149 438.714600,335.869354 
	C434.109192,340.618622 433.377258,344.989288 437.066101,350.689789 
	C438.936401,353.580048 440.615936,357.184113 438.684021,361.095062 
	C438.358215,361.754608 438.887024,363.146698 439.443909,363.878540 
	C441.939362,367.158142 446.044495,368.939301 446.865936,373.825500 
	C447.422211,373.510712 447.978455,373.195923 448.534729,372.881134 
	C448.534729,367.162262 448.493439,361.442993 448.547638,355.724640 
	C448.591766,351.071472 448.711853,346.417969 448.879852,341.767609 
	C448.935730,340.220917 449.334290,338.535889 451.290741,338.605255 
	C453.000031,338.665802 453.084290,340.266205 453.211884,341.615204 
	C454.500000,355.234497 454.835602,368.813904 451.527130,382.242462 
	C450.902191,384.778931 451.823822,386.363129 454.318451,387.250153 
	C456.832184,388.143982 458.346344,387.785645 459.141846,384.909119 
	C459.733673,382.769012 461.832764,381.432648 463.840210,382.064148 
	C468.307159,383.469330 470.326843,381.447388 471.611969,377.637634 
	C471.722992,377.308563 472.391968,377.167725 472.805695,376.937256 
	C475.001312,378.191620 473.324097,380.903656 475.446991,382.642181 
	C479.579803,382.345947 482.976990,376.418579 488.854797,380.027039 
	C478.103638,385.117065 467.274475,388.902893 456.640167,392.965149 
	C456.187592,395.755707 457.658325,397.788330 458.730042,399.715912 
	C462.997284,407.390839 466.071442,415.692566 471.232117,422.907318 
	C474.607635,427.626373 472.919128,433.488556 474.069916,438.768097 
	C476.133545,448.235626 475.572266,457.919525 475.090973,467.553528 
	C474.997223,469.430237 474.472412,471.560638 476.360474,473.350861 
	C481.661438,470.723267 476.425934,464.351166 480.785309,461.074280 
	C483.085205,464.057068 485.128723,466.838684 484.940735,470.693024 
	C485.958618,471.182709 487.255402,469.792267 488.418091,471.588013 
	C486.555695,474.866577 488.432617,479.524231 484.998657,482.737152 
	C483.911133,483.754608 482.573273,484.637665 482.664093,486.374695 
	C482.962952,492.091888 480.702301,497.730927 482.176331,503.490265 
	C482.460907,504.602173 482.248108,505.894653 483.200867,506.746643 
	C485.854767,509.119904 484.368652,510.894836 482.293121,512.365112 
	C479.949921,514.024963 479.030823,516.875427 480.871552,518.293579 
	C485.562988,521.907959 483.138306,525.988831 482.544037,529.956787 
	C482.207275,532.204895 482.174500,534.191223 484.027405,536.340271 
	C487.178528,532.385925 490.150940,532.804382 493.406342,536.384521 
	C495.277100,538.441895 495.704010,538.093811 498.166046,534.236877 
	C493.591034,533.236755 490.822601,530.156189 488.412842,526.445068 
	C486.217438,523.064087 486.666321,518.599365 489.994507,516.096924 
	C491.580139,514.904602 493.308807,514.374634 495.026398,515.762878 
	C496.524261,516.973389 497.545135,518.489807 496.722778,520.545654 
	C496.366882,521.435425 495.438049,522.135620 495.969696,523.385498 
	C497.283508,524.864624 499.136414,525.291321 500.865723,524.441406 
	C502.960144,523.412170 501.827393,521.313904 502.018005,519.574219 
	C502.610504,514.166199 502.387573,509.028595 499.207428,504.369720 
	C498.133759,503.719788 497.339111,504.510132 496.442780,504.877716 
	C489.739655,507.627106 485.729401,504.723389 486.136749,497.426910 
	C486.319977,494.145355 488.418976,493.348114 491.271149,493.377380 
	C500.741028,493.474579 502.223022,492.205627 501.717621,482.883240 
	C501.421448,477.419342 500.662628,471.983093 500.657379,466.481049 
	C500.650513,459.326569 493.742401,457.868378 489.680176,454.407898 
	C485.501740,450.848389 484.779266,445.851532 482.065155,441.780487 
	C481.302490,440.636475 482.053101,439.077209 483.420929,438.428162 
	C485.879883,437.261444 488.401550,437.423096 490.441223,439.232300 
	C493.173401,441.655731 495.554657,444.482666 498.827057,446.258209 
	C499.246460,446.485748 499.691681,446.665649 500.121429,446.865967 
	C503.336639,440.648651 501.528015,436.225342 495.265503,434.838409 
	C493.947998,434.546631 492.525940,434.381287 492.103119,432.832001 
	C491.582825,430.925720 493.034088,430.242157 494.356506,429.465057 
	C496.792664,428.033417 499.079651,426.702667 502.215302,426.849762 
	C506.491730,427.050415 507.766693,424.391937 505.493683,420.642212 
	C503.744385,417.756500 501.299652,415.444580 498.564209,413.525665 
	C496.792450,412.282745 494.997772,411.213898 496.775513,408.852936 
	C498.347473,406.765259 500.345581,406.606506 502.428650,408.230652 
	C504.015167,409.467621 505.683960,410.474670 508.033752,410.465393 
	C509.757996,405.925903 509.857300,402.124725 506.380463,398.104126 
	C499.365723,389.992279 495.770813,379.684692 489.807190,370.855255 
	C488.816711,369.388855 488.085785,367.547180 490.091278,365.263672 
	C493.250671,367.906281 494.631897,372.619965 500.721863,373.961639 
	C494.993195,369.887451 497.743958,364.740601 497.308197,360.487915 
	C495.956696,347.298065 487.328217,338.260376 481.510834,327.617889 
	C480.794464,326.307312 479.748474,325.096649 479.372772,323.700378 
	C478.896942,321.932343 480.986389,320.779266 481.560638,321.787964 
	C484.389618,326.757233 491.821960,325.531616 493.836487,331.412933 
	C496.100464,338.022491 500.263489,343.810059 502.279205,350.552429 
	C504.143951,356.789886 510.805267,357.428986 514.387024,361.442749 
	C517.467834,359.779388 515.905945,355.867767 519.216064,354.446777 
	C523.003845,357.242310 519.863525,362.464661 523.443237,366.305725 
	C524.611145,361.432526 525.768921,357.112152 526.660278,352.737518 
	C527.528564,348.476135 526.937256,344.013428 531.040955,340.574036 
	C533.367676,338.623993 531.429565,335.242218 530.382996,332.618988 
	C527.922180,326.450714 525.356079,320.322723 523.012634,314.110504 
	C522.398682,312.482941 521.838074,310.626923 522.887207,308.435272 
	C526.243530,310.025238 530.219177,309.987488 532.805176,313.255859 
	C535.087402,316.140259 535.050537,320.670135 539.338501,322.576080 
	C542.104858,318.528809 544.284729,314.013245 549.490234,313.176422 
	C548.425781,306.661255 552.114502,301.354797 553.667358,295.845917 
	C555.426941,289.603516 550.356384,283.569153 554.522583,277.158508 
	C558.720154,280.919403 557.903320,286.075897 559.775146,290.075592 
	C564.080994,290.762665 567.203003,288.869446 567.515808,284.960388 
	C568.173401,276.743042 573.072449,269.545959 573.067505,261.197113 
	C580.042847,254.556259 573.208679,252.522766 569.180176,249.559891 
	C567.981262,248.678101 566.613220,247.953018 566.261169,245.905289 
	C569.696350,242.932312 572.282532,238.039902 578.493713,240.628433 
	C579.948608,241.234772 581.428467,240.503143 582.453491,239.175629 
	C582.962158,238.516922 583.460449,237.828293 584.074402,237.276733 
	C586.533325,235.067886 589.181885,231.696762 592.462158,232.860718 
	C595.704834,234.011337 593.682007,238.198410 593.874451,240.860321 
	C594.239441,245.909500 593.170166,251.059814 594.557251,256.106628 
	C595.008118,257.747223 594.065247,258.699036 592.852783,259.327759 
	C589.630310,260.998840 589.242676,263.827698 590.584167,266.531036 
	C592.303162,269.994965 594.879028,267.058807 597.069458,266.703400 
	C599.201965,266.357422 601.299988,265.789948 603.436401,265.479431 
	C605.016479,265.249756 606.487854,265.501068 606.705139,267.532623 
	C606.621277,267.719238 606.585876,267.974609 606.479858,268.008453 
	C598.269226,270.628784 592.018250,277.214325 583.468994,279.232880 
	C578.416687,280.425720 575.046204,283.508850 574.101501,288.992004 
	C573.443970,292.808441 571.799011,296.229858 568.837219,298.985626 
	C567.297729,300.418121 566.022888,302.258423 566.740295,304.847778 
	C571.092346,304.847778 575.272339,304.847778 579.534729,304.847778 
	C577.469360,310.837677 572.929260,313.812256 566.665222,313.749481 
	C562.564880,313.708344 559.599121,314.103088 558.121704,319.594452 
	C557.130737,323.277985 553.830627,327.119354 551.117371,330.575348 
	C550.303833,331.611572 549.178101,332.395325 549.176514,333.848236 
	C549.441528,334.145264 549.627930,334.557281 549.864868,334.588745 
	C552.716980,334.967499 556.203857,335.292236 556.486084,338.630371 
	C556.735413,341.579224 552.995178,342.336884 550.945923,342.713409 
	C546.852051,343.465546 544.534119,348.431610 539.675537,347.042450 
	C538.637085,346.745544 538.229736,348.225098 537.882446,349.140259 
	C536.353699,353.168701 534.746338,357.172577 533.389648,361.259125 
	C532.544739,363.804108 531.888489,366.145569 529.339050,367.813599 
	C526.675110,369.556549 525.991577,372.545319 526.432251,376.048676 
	C529.770508,375.289429 530.322754,371.166229 534.286682,370.751251 
	C534.704834,375.995697 530.738525,379.174316 528.841736,383.022949 
	C526.819153,387.126862 525.687195,391.751007 521.023254,395.516327 
	C526.461487,395.671173 530.505859,396.187836 531.435486,390.601715 
	C531.652161,389.299835 532.584595,388.406311 533.767944,388.279236 
	C542.520752,387.339478 547.846741,380.566376 554.556519,376.167664 
	C557.337158,374.344757 559.947449,372.263794 562.696106,370.389496 
	C563.754700,369.667694 564.926147,368.769714 566.305786,369.862000 
	C565.843628,373.907654 554.641663,382.433228 542.210022,391.327759 
	C533.380249,397.645294 526.870483,406.995178 517.051086,413.811523 
	C527.945862,412.905701 537.296021,410.403137 546.693848,408.085205 
	C548.580872,407.619781 551.623047,406.555115 552.159058,409.527618 
	C552.620850,412.088776 549.658630,412.175659 547.799194,412.541656 
	C544.211731,413.247772 540.577698,413.713257 536.974426,414.344299 
	C535.676147,414.571625 534.009521,414.581177 533.195862,415.384155 
	C527.851196,420.658264 520.463379,421.348083 514.056580,424.202515 
	C510.583069,425.750122 510.587555,431.649597 514.212219,434.417664 
	C515.255920,435.214691 516.549011,435.677948 517.697021,436.347046 
	C520.339172,437.886932 520.143860,439.752350 518.032898,441.505981 
	C510.510590,447.755005 513.794617,456.205933 513.473633,463.886383 
	C513.404236,465.547607 515.246338,466.357544 516.278625,465.115540 
	C517.900818,463.163757 521.239563,461.866394 521.526428,460.263519 
	C522.194275,456.532318 527.274292,455.503967 526.308105,451.016541 
	C525.991394,449.545563 527.991150,448.806732 529.697144,449.005249 
	C532.368042,449.316010 538.668457,455.579834 538.695801,458.171234 
	C538.724365,460.877869 536.435608,461.824554 534.496338,462.543030 
	C531.804749,463.540192 530.672058,464.786346 531.840454,467.716431 
	C532.878723,470.320099 531.811462,472.317993 529.231201,473.325439 
	C526.421692,474.422333 526.047974,476.536316 526.873657,478.968750 
	C527.364319,480.413971 529.471191,481.619293 527.612488,483.277954 
	C526.139282,484.592651 524.477905,483.648895 522.918945,483.043365 
	C522.336487,482.817139 521.679688,482.782471 521.041260,482.657410 
	C520.349915,488.444824 519.802490,494.060577 517.988586,499.404297 
	C517.249146,501.582642 518.145630,502.589844 519.849304,503.283844 
	C522.305908,504.284454 524.410706,503.864227 525.862366,501.423187 
	C527.042175,499.439392 527.273315,496.497986 530.493347,496.414673 
	C532.110046,498.535553 531.107178,500.319580 529.843811,501.503143 
	C527.967285,503.261017 527.226013,504.810455 527.813232,507.537170 
	C528.348450,510.022461 526.091553,510.664703 523.856445,510.794739 
	C517.397583,511.170563 516.187622,512.182678 513.765381,518.850708 
	C518.552612,520.450562 527.151489,516.898376 528.832886,512.318359 
	C530.088440,508.898193 534.263550,509.572815 535.919922,506.693390 
	C536.306213,506.021851 538.271912,507.004669 538.703857,508.116455 
	C540.934448,513.857300 545.646362,513.431152 550.362854,512.921143 
	C552.190674,512.723511 553.727844,512.990906 554.662598,514.665894 
	C555.641418,516.419739 554.865967,517.964172 553.608643,519.163757 
	C550.958618,521.692078 548.466797,524.543457 545.400513,526.437256 
	C541.794006,528.664673 539.538391,531.415833 537.995483,535.347961 
	C536.593750,538.920532 534.320923,538.801331 531.560486,535.903748 
	C529.564941,533.809082 529.594238,529.382751 525.971985,529.518433 
	C523.161621,529.623657 520.482910,531.715942 517.626709,532.480469 
	C513.147461,533.679321 511.857819,536.208008 512.057678,540.850098 
	C512.711487,556.035767 512.517151,556.032593 526.116577,562.898804 
	C527.278076,563.485168 528.289734,564.368164 529.808411,565.414734 
	C532.330750,558.737488 535.360291,564.197998 538.659729,565.288574 
	C540.388733,561.562134 542.921814,561.813721 545.707581,564.050903 
	C547.065613,565.141479 548.200134,566.448547 547.633301,568.305115 
	C547.118530,569.991211 545.565735,570.366577 543.997864,570.371338 
	C540.982178,570.380432 538.341003,572.459595 534.995056,571.582886 
	C534.995056,573.368103 534.995056,574.826782 534.997559,576.642761 
	C532.958313,577.000000 530.916687,577.000000 528.266724,576.723816 
	C525.993958,574.612183 524.425476,572.602722 521.514160,574.453552 
	C520.434326,575.140015 519.436646,574.631042 518.362000,574.001282 
	C514.414795,571.688477 512.955811,572.421753 512.000000,577.000000 
	C509.299988,577.000000 506.599976,577.000000 503.386963,576.584534 
	C501.317230,571.662476 502.206238,566.912903 501.492188,562.332703 
	C501.099243,559.812439 500.795654,556.913025 496.938110,557.137512 
	C497.120117,559.020813 500.276978,560.115051 498.436859,561.999207 
	C496.585327,563.895081 495.182434,561.771240 493.927826,560.568237 
	C492.559082,559.255859 490.858368,558.998352 489.286469,559.480774 
	C486.377930,560.373352 483.568542,560.128479 480.998474,559.151550 
	C479.483429,561.047668 482.151978,563.102417 479.927856,564.604431 
	C477.339081,565.254333 476.424042,562.689514 474.713074,561.597107 
	C472.004944,559.867981 471.287018,560.056091 469.944977,563.026062 
	C473.576996,564.602112 477.222778,566.147888 480.835632,567.766907 
	C482.700592,568.602722 484.784790,569.648193 483.827179,572.139282 
	C482.920929,574.496521 480.694427,574.995178 478.378784,574.361938 
	C475.529022,573.582764 472.726379,572.631226 469.956146,571.770508 
	C468.159454,573.369995 468.821838,575.225830 469.000000,577.000000 
	C466.958344,577.000000 464.916656,577.000000 462.310272,576.685181 
	C461.336456,574.935547 460.888489,573.120178 458.987640,573.734009 
	C455.962372,574.710938 452.489319,574.547852 450.000000,577.000000 
	C449.250000,577.000000 448.500000,577.000000 447.375000,577.000000 
M453.566437,540.279114 
	C451.182037,540.261414 449.071747,540.690674 449.370575,543.766724 
	C449.574463,545.865234 450.237671,547.229187 453.024170,547.421021 
	C456.232574,547.641785 459.779572,548.965210 460.557678,544.569336 
	C461.436646,539.603760 456.692139,541.410767 453.566437,540.279114 
M475.314056,545.531982 
	C473.408936,539.800842 479.353729,544.376953 479.994019,541.509460 
	C479.007202,538.193420 476.818481,537.929321 473.826019,539.809509 
	C470.752106,541.740906 471.166748,544.827515 475.442841,550.471558 
	C477.144135,549.830322 478.922119,549.160217 480.925140,548.405273 
	C479.405762,546.660217 477.403595,546.775818 475.314056,545.531982 
M497.843292,546.161316 
	C493.584015,543.958252 489.458527,542.797791 485.961578,547.360596 
	C486.547821,548.588562 487.637238,548.876892 488.177582,548.496277 
	C491.562103,546.112488 494.963074,546.498535 498.738373,547.494080 
	C500.025757,547.833557 499.068024,546.639954 497.843292,546.161316 
M443.559357,401.525696 
	C444.141846,402.494507 444.724335,403.463348 445.348938,404.502228 
	C448.928192,400.064697 448.768402,398.923126 444.431458,396.850311 
	C442.914978,397.889191 443.396576,399.443390 443.559357,401.525696 
M454.637787,531.435059 
	C458.238464,531.954346 460.836029,531.137207 461.581451,526.092529 
	C458.289490,527.764771 455.020935,527.528687 454.637787,531.435059 
M372.263458,324.163574 
	C374.229126,325.794769 376.344635,326.363342 378.791351,324.827148 
	C376.562866,324.279358 375.405518,318.902771 372.263458,324.163574 
M474.053894,508.956604 
	C473.606354,507.960205 473.369690,506.473114 471.848572,506.996490 
	C470.496002,507.461945 470.114441,508.840393 470.207336,510.209076 
	C470.277863,511.247864 470.763580,512.164246 471.937500,512.172485 
	C473.617432,512.184265 474.015228,510.937134 474.053894,508.956604 
M440.322723,386.329224 
	C441.616272,386.838623 443.540161,387.140472 443.323853,385.415314 
	C442.970551,382.597229 440.384857,382.589996 438.111816,382.556671 
	C437.483154,384.518280 438.999115,385.027985 440.322723,386.329224 
M454.763702,415.719330 
	C454.006500,416.080322 452.869080,415.019836 452.132202,416.751617 
	C455.049194,416.320190 457.701843,418.541779 460.708313,416.628326 
	C459.131714,413.694397 457.079681,415.765930 454.763702,415.719330 
z"/>
<path fill="#000000" opacity="1.000000" stroke="none" 
	d="
M718.468567,577.000000 
	C717.444824,574.279297 717.971741,571.460205 718.955933,569.153870 
	C721.838928,562.398254 720.366394,555.315796 721.186401,548.428833 
	C721.566101,545.239319 720.743408,544.475159 716.316162,542.542664 
	C714.554565,545.331116 718.050293,548.702087 715.146362,551.853271 
	C711.233154,548.107422 705.415710,546.100647 706.700439,538.911133 
	C707.367676,535.176758 705.880127,531.874268 703.099487,529.515747 
	C700.041382,526.921875 698.258484,523.578186 696.036804,520.398621 
	C693.261658,516.426880 695.450317,512.160156 693.903564,508.189453 
	C693.221375,506.438171 695.775208,506.043610 697.587769,506.625275 
	C698.787964,507.010406 699.917297,508.745819 701.175598,507.655762 
	C706.458191,503.079193 708.386230,508.121613 710.977844,510.986908 
	C712.599976,512.780396 712.926575,515.553833 715.899414,517.717407 
	C716.740967,512.928589 717.971252,508.997070 714.577881,505.291351 
	C709.435913,499.675873 703.255188,494.928802 699.987976,487.733490 
	C699.605774,486.891693 698.657715,485.725311 697.944946,485.706055 
	C691.575073,485.533905 692.334167,480.686890 692.021667,476.729187 
	C691.565979,470.958313 692.411804,465.085785 690.192749,459.464325 
	C689.244141,457.061249 691.849976,454.953278 691.083374,452.231354 
	C690.373474,449.710724 690.546631,446.957062 688.971130,444.633575 
	C687.964661,443.149292 687.490173,441.510254 689.161194,440.179016 
	C690.817383,438.859711 692.610413,439.232574 694.289062,440.248260 
	C695.471619,440.963776 696.355835,442.035126 696.669556,443.357635 
	C698.575500,451.391724 704.416382,457.234222 708.225586,464.204529 
	C708.687256,465.049194 709.423950,465.869873 710.236755,466.372101 
	C712.447449,467.738037 714.705322,470.184235 717.397888,468.887390 
	C719.888367,467.687836 718.572449,464.687897 718.749207,462.464325 
	C719.166443,457.216553 717.753479,451.811188 720.340454,446.740448 
	C721.028748,445.391388 720.652100,443.813812 719.936401,442.399628 
	C719.491333,441.520081 718.693115,440.439056 718.895264,439.669617 
	C721.724487,428.898804 718.085999,418.546021 717.032776,408.031433 
	C716.953369,407.238586 716.938171,406.111542 717.401733,405.643799 
	C721.260620,401.749817 718.044067,398.431610 716.258057,395.480804 
	C711.973999,388.402893 707.140381,381.658234 703.295532,374.304657 
	C703.218628,374.157410 703.077209,374.031464 703.040161,373.877686 
	C702.006958,369.585724 700.793152,365.713898 695.652405,364.246918 
	C693.519592,363.638306 692.903137,360.760956 692.649597,358.298370 
	C691.910645,351.122101 692.249939,344.023865 694.091431,337.054840 
	C694.608215,335.099060 694.372864,333.635315 693.323425,331.920166 
	C690.219543,326.846954 692.336121,321.529266 698.172058,320.902893 
	C702.898926,320.395538 704.056519,318.166290 703.916260,314.046356 
	C703.811951,310.982635 704.564514,308.140839 708.467712,308.305969 
	C714.033691,308.541412 718.280090,311.639160 717.667847,315.416290 
	C716.289612,323.919800 716.895386,332.306091 718.058533,340.728210 
	C718.273621,342.286255 717.798462,343.756409 716.740479,344.896820 
	C715.122742,346.640533 715.518250,348.171448 716.991272,349.689331 
	C718.347839,351.087341 720.077026,351.902496 721.939514,351.519043 
	C724.203064,351.053009 723.620667,348.945709 723.656128,347.383057 
	C723.750488,343.219482 723.725159,339.053253 723.746704,334.888062 
	C723.772461,329.919159 723.969299,325.197296 726.109619,320.329071 
	C727.815918,316.447754 727.630249,311.506042 727.442932,307.070618 
	C727.102051,299.000458 728.088135,290.773315 725.045410,282.931793 
	C723.800842,279.724243 721.891602,277.543274 719.037109,275.411530 
	C713.768738,271.477051 710.674744,265.576294 708.540771,259.384918 
	C706.915405,254.669205 705.859192,249.764862 702.997437,245.536041 
	C702.164795,244.305649 701.473206,242.817291 702.299072,241.303680 
	C703.491333,239.118469 705.255310,241.501511 706.825867,240.886154 
	C705.723816,237.586960 706.031677,235.156952 710.366211,235.550552 
	C711.650696,235.667191 712.683899,235.342270 713.286438,234.136566 
	C715.566406,229.574646 718.631042,231.464371 721.592529,233.178558 
	C723.080627,234.039917 724.143433,236.370331 726.233521,235.049072 
	C728.199585,233.806290 728.027771,231.464844 727.559448,229.557388 
	C726.324951,224.529678 727.885132,219.612091 727.844971,214.642517 
	C727.838501,213.841675 727.943848,212.630478 728.449951,212.298279 
	C733.522095,208.968735 732.641968,203.398193 733.789917,198.596985 
	C734.219543,196.800446 734.543884,194.749771 736.906250,194.685913 
	C739.054932,194.627823 739.333862,196.596130 739.914673,198.136337 
	C740.204102,198.903778 740.390747,200.104630 740.936890,200.321671 
	C749.699829,203.804230 746.387024,211.530304 746.598938,217.588043 
	C746.778015,222.707458 746.044312,227.885910 747.250793,232.959991 
	C748.290588,237.332855 747.928406,241.730576 746.863403,247.066589 
	C752.839417,245.372849 756.934692,243.378342 758.608887,238.244385 
	C760.156128,233.500000 761.355774,228.636246 763.039978,223.944031 
	C765.097473,218.211716 767.565552,217.167099 773.531677,218.195847 
	C776.747253,218.750305 778.243347,215.693649 780.204163,213.896713 
	C781.120544,213.056915 781.443726,211.573105 782.045898,210.386337 
	C783.068604,208.370773 783.628052,205.498199 786.778687,206.356369 
	C789.478882,207.091858 789.123779,209.727585 789.066895,211.836487 
	C789.018127,213.644775 789.053223,215.713089 788.220032,217.201035 
	C782.321838,227.734985 781.171753,239.681732 777.949646,250.998993 
	C775.673767,258.992950 771.466309,265.006683 763.286621,267.705048 
	C762.521729,267.957428 761.825073,268.500000 761.185974,269.017944 
	C760.830627,269.305878 760.659851,269.821503 760.115845,270.706299 
	C763.698914,273.065430 766.596069,276.123352 768.562317,280.322571 
	C771.837402,278.288116 774.376648,273.428131 778.199829,278.230286 
	C778.943542,277.966431 779.304626,277.925201 779.553650,277.736298 
	C781.687744,276.117645 783.616211,272.789337 786.681702,275.615662 
	C789.717834,278.415009 787.351379,281.035461 785.457153,283.432281 
	C783.837097,285.482269 782.239441,287.549896 780.154114,290.221710 
	C784.300354,290.552063 787.262939,292.582611 790.843323,292.334961 
	C792.545044,292.217224 794.460449,292.459839 794.606262,294.654541 
	C794.736511,296.614685 793.119202,297.680817 791.456055,298.020905 
	C786.732849,298.986664 781.950500,299.659515 777.217224,300.580444 
	C773.744690,301.256012 768.790649,301.061981 773.099060,306.977509 
	C774.159119,308.432983 773.030640,309.702911 771.597900,310.638824 
	C768.684387,312.542023 765.877319,314.607483 762.987366,316.547882 
	C761.700500,317.411926 760.901550,318.470459 760.279724,319.953339 
	C758.457581,324.298035 753.248596,325.888306 749.318176,323.082306 
	C746.038208,320.740631 743.992371,322.630890 743.912537,325.140778 
	C743.586548,335.389648 740.353699,345.425476 741.346436,356.180695 
	C745.350830,355.380615 748.870667,352.603058 752.596436,354.896149 
	C756.598633,357.359344 752.473206,362.400055 755.467285,365.267639 
	C758.020203,365.465057 758.842651,363.572754 759.340820,361.920288 
	C760.993225,356.438965 764.522949,351.641632 764.976135,345.710693 
	C765.251587,342.105499 768.115540,341.957397 771.124329,342.173676 
	C773.033203,337.432007 773.112549,332.417816 773.886963,327.546173 
	C774.199890,325.577698 774.429321,323.587402 774.893311,321.654236 
	C775.251526,320.161804 776.038574,318.681396 777.835693,318.746643 
	C779.757202,318.816376 779.597168,320.782440 780.374023,321.959351 
	C785.791321,330.165466 782.578796,337.891113 779.220886,345.574280 
	C775.882812,353.211945 774.990601,360.917786 777.786560,368.911011 
	C778.789001,371.777100 778.530457,374.184021 776.042664,376.565796 
	C771.851135,380.578735 774.447021,386.016754 773.913757,390.784729 
	C772.014038,407.771790 773.289551,425.219177 766.862549,441.519806 
	C765.477844,445.031830 762.760681,448.086365 760.727295,451.348969 
	C758.357117,455.152008 757.825500,459.922363 754.351929,463.061401 
	C753.936584,463.436768 753.654785,464.336456 753.783752,464.881165 
	C755.803284,473.406799 751.758240,479.395752 745.673584,484.556244 
	C744.217102,485.791504 744.208069,487.485962 744.268005,489.152832 
	C744.723328,501.820404 741.884094,514.331055 742.483154,527.000610 
	C742.572449,528.889709 741.403870,530.019897 740.401672,531.356689 
	C738.975159,533.259644 738.486511,535.748840 740.498596,537.147461 
	C742.718201,538.690308 744.572205,536.915527 745.665100,534.854187 
	C746.675049,532.949158 747.766418,530.998596 748.278625,528.933411 
	C750.719727,519.091309 756.039612,510.672485 761.168518,502.144226 
	C762.863403,499.326050 763.363953,495.862671 766.072449,493.563690 
	C767.395996,492.440247 768.154846,490.020538 770.389221,491.306671 
	C772.702698,492.638306 771.815491,494.944031 770.887695,496.646667 
	C767.357483,503.125458 765.604614,510.269928 762.944824,517.070618 
	C761.439514,520.919495 759.596008,524.583618 761.966553,528.915955 
	C763.336792,531.419983 760.579773,534.340088 761.842957,537.342285 
	C765.071472,537.503418 767.455566,536.090576 768.410950,533.213440 
	C769.391724,530.259583 770.881104,529.580200 773.628052,530.654358 
	C775.087158,531.224854 776.590698,530.807373 778.036499,530.355591 
	C779.639648,529.854675 781.124084,529.979858 781.813416,531.695374 
	C782.382263,533.111084 781.694946,534.607117 780.465820,535.124695 
	C775.058777,537.401672 773.917847,542.136841 772.898499,547.157654 
	C771.983154,551.666443 766.672241,554.065369 761.115051,551.396851 
	C756.399414,549.132446 753.008789,548.697388 749.794006,553.151184 
	C749.532532,553.513489 748.942078,553.652405 748.488281,553.859680 
	C741.700195,556.960205 738.016846,561.430115 741.050110,569.368713 
	C741.879944,571.540527 740.968506,573.979919 740.141418,576.613037 
	C732.979065,577.000000 725.958069,577.000000 718.468567,577.000000 
M751.168274,290.439545 
	C751.362183,285.824951 754.050720,282.094788 755.579773,277.952728 
	C756.374878,275.798676 756.654785,273.392090 754.191833,272.363342 
	C751.908386,271.409576 749.263794,271.413513 747.434814,273.703033 
	C745.962097,275.546570 745.112915,277.622223 745.217957,280.106964 
	C745.350342,283.236603 745.216675,286.377319 745.207581,289.513245 
	C745.202454,291.268738 744.400574,293.572449 746.581421,294.321472 
	C749.032715,295.163361 749.930542,292.901611 751.168274,290.439545 
M749.514343,395.809631 
	C748.015320,398.730682 749.147156,400.437592 752.338562,401.598419 
	C754.985840,398.097473 756.808594,394.582367 755.100769,389.163116 
	C753.029053,391.579590 751.458740,393.411224 749.514343,395.809631 
M745.168579,366.166626 
	C744.714478,365.193512 744.655762,363.830078 742.767761,364.011139 
	C741.916626,365.798950 741.516785,367.948853 743.426025,369.030090 
	C745.115234,369.986725 745.443909,368.222321 745.168579,366.166626 
z"/>
<path fill="#000000" opacity="1.000000" stroke="none" 
	d="
M293.454102,577.000000 
	C290.042847,572.349060 287.631226,567.476685 286.893250,561.927246 
	C286.699188,560.467773 285.459473,559.778442 284.664185,558.742981 
	C281.984222,555.253662 280.920776,551.445740 282.801025,547.141602 
	C285.550232,540.848328 280.185883,530.771362 273.416748,529.438049 
	C272.407257,529.239197 271.397339,529.291870 270.728607,530.641052 
	C270.832611,532.741699 275.446808,533.826843 272.844025,536.639099 
	C270.684723,538.972046 267.729889,540.554443 264.370361,540.025818 
	C261.443787,539.565369 262.355286,536.729126 262.272736,534.218994 
	C253.046799,537.457336 244.369766,540.204773 236.917145,545.744873 
	C235.984024,546.438599 235.116501,547.272339 234.088394,547.774658 
	C232.457520,548.571472 230.784607,548.542603 229.658432,546.859253 
	C228.618652,545.305054 229.330734,543.851135 230.562775,542.892700 
	C232.855728,541.109070 234.104294,539.368774 233.072571,536.131287 
	C232.288544,533.671204 234.202988,531.910278 236.697769,531.846863 
	C240.063858,531.761169 242.822632,530.789917 245.173676,528.321350 
	C246.506592,526.921814 248.513962,526.974182 250.340012,526.793823 
	C251.676331,526.661804 253.622681,526.611511 253.861160,525.379578 
	C254.726837,520.907654 257.946411,520.203308 261.581696,519.828125 
	C262.846619,519.697510 263.849487,519.004761 264.164642,517.775330 
	C265.265106,513.482605 267.992126,513.131287 271.396118,514.829102 
	C273.990265,516.123047 276.655243,514.944824 279.260345,515.394531 
	C281.004272,515.695496 281.450592,514.386169 281.838806,513.003723 
	C282.902557,509.215454 283.271515,505.645813 281.054596,501.948792 
	C279.196960,498.850952 278.044342,495.330292 276.595093,492.032227 
	C268.117981,493.900879 260.249817,496.275055 253.745255,501.845703 
	C252.456055,502.949829 250.980392,503.691223 249.166809,503.423340 
	C243.907211,502.646454 239.768219,504.707123 236.257095,508.472900 
	C230.920746,514.196411 225.553711,519.891785 220.152054,525.553589 
	C219.007614,526.753235 217.725876,527.849731 216.386688,528.828674 
	C214.605835,530.130432 212.592133,530.604797 211.092361,528.557922 
	C209.714554,526.677490 210.937378,525.126099 212.342026,523.777283 
	C214.384827,521.815796 216.418228,519.844482 218.451202,517.872742 
	C220.145950,516.229065 221.864685,514.665710 220.596512,511.867798 
	C220.068069,510.701996 220.847229,509.587311 221.751099,508.777313 
	C223.241135,507.442108 223.387238,506.131287 222.236832,504.415802 
	C221.032730,502.620239 219.617996,502.120819 217.553940,502.588654 
	C215.953644,502.951355 214.252991,503.200653 212.634384,503.062347 
	C210.951965,502.918579 209.219818,502.147797 209.205276,500.094818 
	C209.191223,498.113525 210.732849,497.034302 212.484726,496.950745 
	C217.441559,496.714203 221.810760,494.485962 226.333084,492.932678 
	C234.625717,490.084320 242.765045,486.776978 250.905762,483.505463 
	C253.985229,482.267914 256.968781,480.744720 259.195435,478.086945 
	C260.164459,476.930328 261.453308,476.212433 262.977600,475.803284 
	C268.464539,474.330627 269.229645,472.565674 265.956421,468.010742 
	C263.753540,464.945312 262.449005,461.662140 261.631409,458.034882 
	C260.269562,451.993011 257.259888,449.952576 252.103134,453.029053 
	C245.456299,456.994476 238.129105,457.931152 231.008820,459.922241 
	C225.916565,461.346222 222.256485,465.332642 217.571991,467.512970 
	C215.599976,468.430847 213.486176,470.135803 211.770554,467.846832 
	C209.949509,465.417328 212.383179,464.012421 213.964676,462.601166 
	C214.813660,461.843536 216.610291,461.117920 216.146469,460.139771 
	C212.823441,453.132080 219.267120,453.675201 222.451874,451.702759 
	C222.873795,451.441406 223.287903,451.167480 223.684845,450.912750 
	C223.567535,444.005554 225.129105,442.458099 232.100525,444.234619 
	C236.537323,445.365204 238.796738,445.725098 238.906921,439.926758 
	C238.968704,436.676453 242.928635,434.830170 244.674057,432.001221 
	C245.187378,431.169250 245.842606,430.424805 246.196686,429.954132 
	C242.307480,421.462341 235.000092,419.864136 227.032883,419.486969 
	C225.157257,419.398132 223.860855,418.397308 223.578598,416.485474 
	C223.258331,414.316101 224.533630,412.481720 226.374557,412.380981 
	C231.646362,412.092560 234.709686,406.094604 240.488007,407.252777 
	C241.586777,407.472992 242.547150,406.288818 242.590057,404.903503 
	C242.631882,403.552612 241.976761,402.617249 240.694809,402.333435 
	C238.583542,401.865997 236.453827,401.398773 234.306763,401.191162 
	C226.920395,400.476990 220.730789,397.060272 214.058182,394.019135 
	C201.520615,388.305054 191.063446,378.626129 177.418671,375.247345 
	C176.451126,375.007751 175.484070,374.727478 174.560394,374.357330 
	C172.673431,373.601257 171.368240,372.340393 172.074951,370.145081 
	C172.784912,367.939667 174.614990,367.587341 176.543640,368.229889 
	C180.490341,369.544769 184.292084,371.398804 188.313278,372.368073 
	C205.549423,376.522827 221.716370,384.283997 239.259033,387.364136 
	C240.405609,387.565491 241.552643,387.820831 242.709534,387.895935 
	C245.718582,388.091400 247.279816,387.146545 245.896622,383.802368 
	C245.263046,382.270477 245.012131,380.581970 244.397110,379.040497 
	C242.714706,374.823853 242.399368,370.593323 244.422836,366.025055 
	C241.665100,367.644867 239.440094,368.059814 236.675690,367.285370 
	C234.739532,366.742981 232.065491,366.923798 230.340332,367.888794 
	C224.644791,371.074738 218.365341,370.191864 212.363159,371.052856 
	C207.064224,371.812958 205.958893,369.932495 208.029205,365.028076 
	C208.781952,363.244904 208.872101,361.182007 209.255341,359.292267 
	C207.611038,357.617035 204.049988,359.743286 203.777115,356.742249 
	C203.465530,353.315308 205.655228,350.362640 207.760010,347.977600 
	C212.171097,342.979248 223.508057,343.121399 228.039413,348.141785 
	C229.925888,350.231873 230.705490,348.921295 232.184647,347.653564 
	C227.118530,342.113678 215.322571,339.991455 222.443039,327.874786 
	C217.243683,325.052673 212.035400,321.952332 206.583893,319.364319 
	C203.037933,317.680847 200.934875,316.119019 203.145889,311.840942 
	C204.466156,309.286346 202.603348,307.949493 200.243011,307.154907 
	C197.474701,306.222992 193.270767,305.348846 195.027451,301.562317 
	C196.687164,297.984894 199.945465,301.174408 202.380035,302.072540 
	C203.895752,302.631683 205.250992,303.625885 206.481827,304.314850 
	C208.277802,303.667480 208.510406,302.189148 209.166656,301.097626 
	C211.464310,297.275879 214.341995,296.782318 217.950363,299.246368 
	C219.314453,300.177887 220.730530,301.092499 222.242188,301.733521 
	C224.079926,302.512817 226.245560,303.350616 227.837280,301.551971 
	C229.497421,299.676025 227.544571,298.096558 226.625854,296.708160 
	C224.836136,294.003448 225.612503,291.837646 227.167725,289.367706 
	C230.052689,284.785889 228.754395,281.953949 223.453964,280.814819 
	C219.390503,279.941498 215.296280,279.211945 211.229706,278.352325 
	C208.672897,277.811859 206.834396,276.369324 207.204926,273.548248 
	C207.571457,270.757721 209.796463,270.342438 212.141937,270.647858 
	C214.785828,270.992126 216.197784,270.148499 217.437881,267.513031 
	C220.307556,261.414337 224.495941,260.565308 229.690659,264.850952 
	C231.836975,266.621704 233.318970,266.498688 235.331848,264.911224 
	C238.185898,262.660339 241.621078,261.934967 245.187912,261.937225 
	C246.885330,261.938324 248.603775,262.242340 249.240677,264.187500 
	C249.849075,266.045624 249.088898,267.859131 247.529877,268.457458 
	C242.363037,270.440338 241.664078,276.642426 236.671875,279.114716 
	C233.282379,280.793335 236.394073,293.355286 240.153610,294.578186 
	C242.000717,295.179016 243.830566,294.751923 243.739395,292.519897 
	C243.590851,288.883118 245.600677,287.384308 248.397858,285.697906 
	C250.213150,284.603516 251.127487,282.033722 252.484131,280.152863 
	C253.395508,278.889343 254.525894,277.741974 256.225342,278.302155 
	C258.124481,278.928223 257.695099,280.563202 257.570404,282.088531 
	C256.763367,291.962769 256.852509,292.175842 265.225616,296.365753 
	C267.677338,297.592621 268.618439,299.415253 268.238159,302.032532 
	C267.704315,305.706818 268.611237,308.377411 272.391083,310.070892 
	C276.408356,311.870758 278.222778,314.588165 275.240051,319.188446 
	C272.859192,322.860443 274.170502,325.713104 278.510681,326.551483 
	C282.587677,327.338989 283.028229,330.168091 283.127502,333.149994 
	C283.228485,336.185577 285.065643,340.098145 280.180481,341.472961 
	C278.977203,341.811584 278.303162,342.688080 277.729218,343.783295 
	C274.186218,350.544373 271.921143,351.583740 264.723053,349.932098 
	C264.132233,349.796539 263.497833,349.851196 262.104523,349.774628 
	C263.944550,354.595123 264.481689,359.103943 263.406494,363.718719 
	C263.130707,364.902527 263.761810,365.943207 265.075043,366.447174 
	C270.054504,368.358276 270.103790,371.571564 267.382874,375.471313 
	C266.685242,376.471222 266.234955,377.545776 266.727966,378.748749 
	C269.728668,386.070312 269.287903,394.164917 271.501740,401.489685 
	C273.081390,406.716064 274.074890,412.421021 277.250275,417.232483 
	C280.277740,421.819733 279.484222,424.197968 274.312897,426.795441 
	C279.571259,429.427887 279.866058,434.863342 281.745483,439.334778 
	C283.619293,443.792938 284.982910,448.465546 286.570190,453.044128 
	C286.968719,452.956970 287.367218,452.869812 287.765717,452.782654 
	C288.388275,450.099548 289.126709,447.437042 289.607483,444.728760 
	C290.423950,440.129395 290.854187,435.521301 295.950348,433.104950 
	C298.083160,432.093719 297.803772,429.387756 298.111053,427.253845 
	C298.681580,423.291901 298.895264,419.144806 303.782410,417.647461 
	C305.241760,417.200378 305.388123,415.803955 305.392822,414.342163 
	C305.419495,406.000214 308.950806,399.682281 316.492462,395.853088 
	C318.712646,394.725800 319.883301,392.525879 321.107971,390.745331 
	C324.035400,386.489136 328.970520,384.209930 331.408630,379.587830 
	C332.170959,378.142670 333.616364,377.146454 335.146484,377.794922 
	C338.782104,379.335754 340.809509,377.354279 342.670624,374.813690 
	C343.843323,373.212860 345.190399,371.891357 347.243988,372.959900 
	C349.510040,374.139008 349.313507,376.168579 348.391388,378.156982 
	C346.939117,381.288788 346.550781,384.959808 343.621277,387.352386 
	C342.167053,388.540100 342.267303,390.288177 342.282104,391.973450 
	C342.297699,393.747040 341.787567,395.497162 340.109802,396.179077 
	C332.814728,399.143951 331.933167,405.998962 330.552307,412.281158 
	C329.743195,415.962372 328.979797,417.887299 324.773132,416.331512 
	C321.303040,415.048126 319.103729,418.455627 318.929504,420.308289 
	C318.186462,428.208801 312.506195,434.044037 310.879120,441.462982 
	C310.665680,442.436249 310.174194,443.462463 310.321381,444.382568 
	C311.300812,450.504974 307.628174,453.815643 302.855621,455.860931 
	C297.903198,457.983246 297.380920,462.027191 297.959320,466.124695 
	C298.604919,470.698090 298.346680,475.067169 297.448517,479.489441 
	C296.851654,482.428162 296.152527,485.321960 297.241913,488.331482 
	C297.560333,489.211243 297.725830,490.578979 297.266663,491.241730 
	C291.687958,499.294067 295.012085,508.437256 294.110077,517.033630 
	C293.735046,520.608154 294.299591,524.272766 291.943420,528.211548 
	C296.618927,528.609253 299.066956,526.423279 300.679352,523.338135 
	C301.476898,521.812134 301.929535,520.204651 303.766785,519.783264 
	C306.546661,519.145630 307.804810,517.110474 308.878296,514.753540 
	C309.848480,512.623474 310.953705,510.477936 313.139771,509.358063 
	C315.044586,508.382294 317.116791,508.165070 318.429993,510.308594 
	C319.509308,512.070312 319.217010,513.821106 317.483093,515.169861 
	C316.563843,515.884888 315.618591,516.573486 314.754852,517.351501 
	C313.146820,518.799866 312.199860,520.675110 313.149841,522.702515 
	C314.073883,524.674622 316.068390,523.836060 317.623199,523.531067 
	C319.563751,523.150452 321.099121,523.564636 322.747253,524.707581 
	C326.688110,527.440308 331.521973,528.627808 335.270721,531.739197 
	C336.472321,532.736511 337.578857,533.874268 336.759491,535.559204 
	C335.974854,537.172607 334.304932,537.463745 332.864746,536.973145 
	C328.335602,535.430420 323.494019,535.093933 319.171783,532.588379 
	C315.368622,530.383667 311.053864,530.295837 306.854462,532.358154 
	C307.478302,538.268372 312.538788,539.942383 315.858490,542.833008 
	C320.606262,546.967163 325.175720,550.640015 328.195038,556.716492 
	C330.799957,561.958923 335.973969,566.126404 341.168884,569.633850 
	C343.990692,571.539124 347.576416,572.689453 348.997223,576.646606 
	C346.629425,577.000000 344.258881,577.000000 341.235474,576.740112 
	C337.923798,574.763916 335.264954,573.047607 332.606079,571.331299 
	C332.460663,571.588684 332.315216,571.846069 332.169769,572.103394 
	C333.446503,573.735596 334.723267,575.367798 336.000000,577.000000 
	C330.311951,577.000000 324.623932,577.000000 318.360565,576.645081 
	C314.785797,569.691406 315.182343,568.938599 321.727356,569.312622 
	C321.095825,567.351379 319.804871,566.034546 318.114075,565.363708 
	C314.152832,563.792297 311.688812,561.180542 310.187256,557.069702 
	C308.539551,552.559021 304.317322,551.359680 299.953796,550.524109 
	C298.587006,554.159241 299.445129,557.046326 300.338715,560.156189 
	C301.909729,565.623535 304.920410,570.954529 303.000000,577.000000 
	C299.969391,577.000000 296.938812,577.000000 293.454102,577.000000 
M257.224396,302.590393 
	C252.937637,304.489410 252.181702,307.512360 254.158997,315.993011 
	C255.814178,311.368256 259.193665,307.818085 257.224396,302.590393 
z"/>
<path fill="#000000" opacity="1.000000" stroke="none" 
	d="
M601.466125,577.000000 
	C598.183350,568.916748 596.033020,560.837036 600.863525,552.699280 
	C601.374207,551.839050 601.760437,550.729370 601.171021,549.833069 
	C599.104980,546.691284 599.607056,543.549316 601.280762,540.346985 
	C598.636780,538.416809 596.528931,540.143066 594.584351,540.917969 
	C591.154053,542.284973 588.605774,541.751160 586.234680,538.844849 
	C583.901917,535.985352 585.481934,534.116638 587.170349,531.852051 
	C589.235657,529.082092 591.004822,526.082458 592.784485,523.111755 
	C593.827576,521.370544 595.200439,520.804993 596.966919,521.650757 
	C598.702515,522.481689 600.340271,523.359009 601.839050,521.382019 
	C603.365540,519.368591 604.839539,517.312317 602.744324,514.356750 
	C597.862793,516.298340 592.973083,518.236694 588.088989,520.188965 
	C586.238403,520.928711 584.023743,522.219788 582.820984,519.800293 
	C581.638245,517.421082 583.995361,516.229126 585.660034,515.272827 
	C589.812378,512.887451 591.666321,508.286163 595.617126,505.522369 
	C598.528687,503.485565 597.061584,500.060760 593.339050,499.018982 
	C590.778137,498.302338 588.178101,497.477295 585.553833,497.292236 
	C581.389526,496.998505 580.856812,494.675720 581.158447,491.225372 
	C581.435913,488.052002 583.122437,487.267151 585.460876,488.744720 
	C589.499084,491.296295 594.304260,491.598663 598.468750,493.745728 
	C601.830688,495.479034 603.881714,494.430634 603.912170,490.320007 
	C603.954773,484.573700 603.769470,479.022644 606.397339,473.360168 
	C608.835754,468.106171 604.187073,465.414490 599.759888,463.619324 
	C598.564636,464.250671 599.605408,466.458130 596.465942,466.624664 
	C596.324707,459.838959 590.462646,455.832489 587.115051,450.444336 
	C589.496216,448.279602 590.989929,451.013153 592.923828,450.293030 
	C594.387512,448.367493 592.567139,446.671783 592.230957,444.869415 
	C591.971436,443.477936 591.715759,442.125549 593.213257,441.386169 
	C594.891785,440.557404 596.162292,441.495483 596.989746,442.849670 
	C598.312439,445.014526 599.283386,447.230042 597.978027,449.890930 
	C596.516235,452.870880 598.181702,454.267670 600.955261,454.712250 
	C603.577881,455.132660 605.921814,454.625214 605.678223,451.328461 
	C605.135193,443.979401 604.338318,436.649109 603.601929,428.857086 
	C607.326965,427.422333 608.145508,423.698883 608.873291,419.921967 
	C610.406677,411.963654 612.040222,404.022644 613.419495,396.037689 
	C613.884033,393.347900 612.348511,390.900055 611.577393,388.361633 
	C610.327576,384.247406 609.369751,380.044464 608.145691,375.328094 
	C601.613708,377.007080 596.152039,383.214020 588.314270,379.892578 
	C594.089783,377.991028 595.495544,372.049805 599.680847,368.868530 
	C600.996887,367.868225 602.267944,366.738647 601.545776,365.213165 
	C599.562683,361.024200 600.442627,355.007294 593.798889,353.646759 
	C591.659058,353.208557 590.523804,350.779755 591.943298,348.366730 
	C592.623718,347.209930 593.704529,346.230347 592.691772,344.807343 
	C591.506714,343.142242 589.862854,344.118988 588.554993,344.411438 
	C584.346436,345.352509 580.380127,345.801971 576.892334,342.397095 
	C575.976929,341.503448 574.302246,341.203857 574.961914,339.468475 
	C575.439941,338.211090 576.778931,337.892120 577.921692,338.063416 
	C582.616272,338.767120 587.181396,338.844818 591.519104,336.465881 
	C592.509399,335.922791 593.421936,336.610870 594.220459,337.265442 
	C598.044800,340.400269 602.769897,341.687927 607.217529,343.524902 
	C609.892639,344.629761 613.049927,344.688538 613.181702,348.988495 
	C613.262756,351.634308 618.227173,349.971863 618.411682,353.765045 
	C614.149475,356.637512 610.735107,351.463165 606.674744,351.816345 
	C607.366943,357.424805 608.992737,358.568604 617.180969,359.069977 
	C612.865723,365.678955 607.518616,372.344635 617.000061,379.651001 
	C618.208008,375.168518 619.566589,371.163483 623.293701,368.627930 
	C623.947083,368.183441 624.357178,366.742676 624.216980,365.868256 
	C622.653320,356.116028 628.400024,347.895691 629.840027,338.768921 
	C630.606567,333.910522 629.779114,331.755676 624.835205,331.335815 
	C620.053650,330.929718 615.211121,330.557953 610.525085,332.471130 
	C608.499390,333.298126 605.850037,334.854401 604.357727,331.922821 
	C602.839844,328.941101 604.847595,327.282806 607.523682,326.623962 
	C607.613770,324.910919 605.746399,324.257446 606.224854,322.487366 
	C606.381592,322.300659 606.617004,321.760986 607.011719,321.590698 
	C610.643494,320.023987 613.760254,321.156616 616.757507,323.386932 
	C621.824158,327.157074 630.438171,326.269470 634.530273,321.696167 
	C635.614441,320.484589 635.909912,319.051514 635.874756,317.526642 
	C635.808899,314.669250 636.299927,311.994293 637.262634,309.244415 
	C638.186096,306.606659 638.504272,303.159973 635.141357,301.905273 
	C629.563538,299.824127 626.285278,295.300537 623.249573,290.884216 
	C619.913025,286.030090 616.056519,281.788147 611.947449,277.675690 
	C610.805115,276.532410 609.109802,275.250122 610.763367,273.513245 
	C612.074402,272.136139 613.935974,272.623840 615.409790,273.487488 
	C617.748230,274.857819 619.366821,276.910461 620.758301,279.273376 
	C624.144775,285.023895 636.001892,288.048584 641.086243,284.120911 
	C644.064453,281.820282 643.471069,277.899933 642.002563,274.904053 
	C640.229980,271.287903 638.734985,267.633057 637.675354,263.771912 
	C637.543701,263.292206 637.505920,262.679138 637.188232,262.373871 
	C629.518066,255.003479 629.585693,243.481430 622.834534,235.605820 
	C622.157532,234.815994 621.611572,233.561325 622.541077,232.249222 
	C628.649231,232.898651 630.586914,239.161255 635.118652,241.743103 
	C640.254028,244.668839 642.041382,249.951477 644.941650,254.563583 
	C648.863892,250.657410 649.650208,245.280869 647.173706,240.717117 
	C643.530884,234.004242 640.153625,227.121277 635.178772,221.223984 
	C633.978943,219.801697 632.516663,218.209656 634.239258,216.436630 
	C635.962097,214.663345 637.056580,217.009857 638.480286,217.471893 
	C644.271362,219.351288 646.884521,224.358826 649.920349,230.034805 
	C652.160034,223.287811 653.821716,217.840714 648.066833,213.288559 
	C647.514771,212.851868 647.288147,211.817780 647.186646,211.025604 
	C645.811829,200.301285 644.833557,189.517334 642.145020,178.997818 
	C641.763916,177.506500 641.627075,175.983856 643.738831,175.047699 
	C650.764954,180.307373 649.481323,189.656570 653.034302,196.949966 
	C657.260559,193.973984 658.952515,190.888718 658.689087,186.645401 
	C658.524719,183.998245 658.346558,181.185516 659.061218,178.702255 
	C659.646301,176.669220 658.357117,172.329483 663.428650,173.548798 
	C664.430786,173.789734 664.302490,171.118744 666.207214,170.621750 
	C667.833984,172.421844 669.737610,174.809982 671.875610,171.393219 
	C674.053833,172.482697 673.814819,173.797653 673.367554,175.113007 
	C672.509644,177.635498 671.785706,180.226288 670.672119,182.634232 
	C668.475220,187.384506 669.058960,190.589264 674.818237,191.664886 
	C676.866638,192.047440 677.389099,193.582825 676.766907,195.497803 
	C676.561401,196.130188 676.307312,196.751480 676.021973,197.352509 
	C673.941467,201.735214 668.436890,205.007828 672.617188,210.518433 
	C669.631836,212.164154 668.683533,209.856384 667.084595,209.743591 
	C662.472412,213.494217 661.005249,222.603882 664.695679,226.099060 
	C667.027222,219.775330 672.783875,219.404770 678.193054,218.146301 
	C676.451172,223.283127 672.665405,227.082672 668.921326,230.036285 
	C660.725464,236.501770 662.613159,245.547455 661.406921,253.780365 
	C660.983093,256.672638 664.138000,257.698120 665.905151,256.159363 
	C669.673950,252.877670 672.456360,254.932800 675.769348,256.909851 
	C674.888550,261.851288 668.913330,260.389771 666.934082,263.977356 
	C667.662476,266.594025 671.294800,265.424408 672.225891,267.902130 
	C672.258545,269.961639 670.542358,269.860779 669.163147,270.366180 
	C662.825867,272.688568 655.690369,274.156647 655.112183,282.964630 
	C655.029846,284.218323 654.142700,285.067657 652.847839,285.308350 
	C651.049927,285.642517 650.119690,286.615662 650.716614,288.462372 
	C651.257874,290.136993 652.654236,290.894318 654.268921,290.440491 
	C660.333069,288.736023 663.644165,290.563110 663.593750,297.228516 
	C663.590332,297.673401 664.336182,298.330994 664.868835,298.533081 
	C666.330139,299.087616 668.010498,299.570557 667.230469,301.552643 
	C666.591614,303.175751 664.792175,303.241028 663.313416,303.104828 
	C659.343384,302.739166 655.362671,302.354431 651.438782,301.674133 
	C649.005127,301.252197 647.170898,301.954163 646.838318,304.218781 
	C646.271729,308.076538 644.487671,311.879761 645.675293,316.053406 
	C649.061646,317.139923 651.050781,314.721283 653.299072,313.274963 
	C657.083618,310.840393 659.916870,310.255035 663.194946,314.721222 
	C665.457947,317.804474 662.460938,319.202271 662.625977,321.602142 
	C665.127930,323.032532 667.062561,322.003296 668.681335,320.164520 
	C670.106689,318.545380 671.307129,316.729889 672.638489,315.025848 
	C674.190186,313.040039 676.750671,312.489502 677.065430,315.075958 
	C677.444092,318.186981 679.976440,318.790131 681.669250,321.082001 
	C678.335266,323.521973 677.344971,326.901672 677.114868,330.858887 
	C676.920288,334.207031 674.045593,335.278931 671.198120,334.517303 
	C666.090393,333.151031 662.030029,334.575897 657.689880,337.343079 
	C653.247498,340.175476 647.958618,341.570068 643.574036,344.729645 
	C640.984009,346.596039 639.144714,348.922424 638.542114,351.907776 
	C637.522949,356.956879 636.852844,362.080627 636.166321,367.190491 
	C635.904724,369.137665 635.529541,371.445221 637.855164,372.447449 
	C640.108276,373.418427 641.552551,371.611237 643.015137,370.269562 
	C650.659912,363.256927 654.062256,353.846863 657.461792,344.467163 
	C658.487915,341.635986 659.943298,339.236023 662.341736,336.539886 
	C665.594788,341.227936 661.063171,344.643738 662.151184,348.731049 
	C663.468994,349.674194 665.048645,346.804077 667.722046,349.070770 
	C668.781311,350.037048 665.937683,351.903107 666.781860,353.818054 
	C669.336853,356.524994 672.468018,352.109192 675.607788,354.811249 
	C673.476685,359.370667 667.352844,359.273865 664.723022,363.895325 
	C668.807800,367.009094 673.414551,368.965912 678.516296,369.767578 
	C680.406555,370.064575 682.585571,370.152863 682.427856,372.587921 
	C682.234741,375.568909 679.715027,374.883148 677.794189,374.722809 
	C672.322510,374.266052 666.863037,373.477905 661.385986,373.344238 
	C658.420410,373.271912 656.972717,371.535980 655.453308,369.637268 
	C651.267883,370.586853 648.888794,373.879059 645.934143,376.170898 
	C638.830872,381.680756 632.398804,387.935944 627.665283,395.711151 
	C626.171509,398.164886 618.363831,423.810608 618.203918,426.603180 
	C618.156311,427.434662 618.068420,428.265381 618.058289,429.097198 
	C618.033508,431.133362 618.924500,432.635712 620.811279,433.447327 
	C622.650696,434.238495 624.042542,433.332520 625.260193,432.080109 
	C627.680786,429.590515 630.233154,427.338684 634.587463,426.395477 
	C634.098633,434.189850 625.937866,435.977051 623.682007,442.079742 
	C629.470154,442.365356 630.128784,430.584747 637.922363,436.510620 
	C640.203979,434.728729 642.575989,433.208435 640.611633,429.659790 
	C639.742859,428.090210 640.407288,426.151489 642.042480,426.122528 
	C644.954834,426.070953 647.139893,421.846741 650.269226,424.571320 
	C652.180176,426.235107 651.121094,428.392212 649.961731,430.014252 
	C647.094421,434.025879 646.384766,439.449585 641.784546,442.356506 
	C641.067444,442.809601 640.628540,444.018982 640.445984,444.953796 
	C638.315613,455.862854 630.980225,463.808105 624.869995,472.446228 
	C623.211548,474.790833 621.305359,476.161652 618.973633,472.801636 
	C616.247070,476.276581 614.204956,479.451874 616.016968,484.021423 
	C616.854736,477.481293 622.428528,477.957153 626.035645,478.125000 
	C634.352905,478.511871 640.805359,473.744263 648.216614,471.872894 
	C654.928955,470.177979 661.202820,466.722839 668.322998,466.676636 
	C670.105225,466.665070 672.327454,466.256927 672.811646,468.703796 
	C673.250488,470.921295 671.318054,471.560944 669.754883,472.634613 
	C659.025879,480.004059 646.141235,480.696991 634.207764,484.302032 
	C631.693481,485.061523 629.483337,486.101685 628.174805,488.359406 
	C626.181274,491.798920 623.247070,493.534210 619.406128,494.191284 
	C615.915527,494.788422 614.753845,496.907623 616.095276,501.024109 
	C620.795288,498.526794 625.711060,497.481445 630.432007,495.841583 
	C632.051208,495.279114 633.581909,494.880524 635.262756,494.939423 
	C637.305176,495.010986 639.552124,495.068695 640.228821,497.411896 
	C640.976990,500.002472 638.720093,500.772491 636.939575,501.653809 
	C633.715515,503.249664 631.400696,505.370941 632.127014,509.420807 
	C632.527161,511.652100 632.769287,514.045715 629.824280,514.589050 
	C627.147705,515.082886 626.070129,513.006958 625.241028,510.890137 
	C625.060120,510.428162 624.828308,509.986053 624.628723,509.553802 
	C617.016724,508.870392 615.268494,511.393494 615.148132,518.861328 
	C615.063232,524.127930 615.533569,529.242737 615.996399,534.418335 
	C616.147278,536.106201 616.485535,537.682129 617.439331,539.129944 
	C624.075073,549.202271 623.910767,561.152588 626.563599,572.325378 
	C626.840271,573.490662 627.021362,574.737610 625.723083,575.407043 
	C624.375916,576.101746 623.665833,575.049927 622.828552,574.194397 
	C620.798340,572.120117 619.545471,569.999023 619.577087,566.792114 
	C619.618530,562.580688 619.091309,558.282593 616.879089,554.370605 
	C616.147583,559.248047 617.464111,563.980103 618.010681,568.753906 
	C618.329346,571.537109 619.180725,574.383179 616.129150,576.699219 
	C611.310730,577.000000 606.621521,577.000000 601.466125,577.000000 
M651.468506,332.944855 
	C653.028687,331.746521 654.488403,330.377899 656.170410,329.386261 
	C659.398254,327.483215 659.230164,325.935760 656.083862,324.143555 
	C651.663269,321.625549 647.165894,322.956573 644.108337,325.664459 
	C640.531860,328.831848 642.299194,333.776642 642.378296,338.225494 
	C646.515442,337.923950 648.283752,334.928009 651.468506,332.944855 
M640.845642,289.567017 
	C638.767700,286.878113 637.201538,289.658875 635.489197,290.167816 
	C634.466431,290.471802 634.113525,291.602051 634.723572,292.655060 
	C635.432922,293.879456 636.528015,294.707703 637.975769,294.601532 
	C640.736450,294.399109 640.813843,292.277802 640.845642,289.567017 
z"/>
<path fill="#000000" opacity="1.000000" stroke="none" 
	d="
M475.943176,353.443115 
	C478.288574,358.538177 475.054230,362.115784 473.808685,366.387299 
	C470.358948,363.194183 469.353088,355.350525 471.699860,352.247345 
	C473.630371,349.694611 474.889130,350.673218 475.943176,353.443115 
z"/>
<path fill="#000000" opacity="1.000000" stroke="none" 
	d="
M527.332825,560.819092 
	C523.369385,556.388794 523.574097,552.570007 527.517334,551.886292 
	C530.066833,551.444214 533.155884,551.667480 533.510986,554.675354 
	C533.945190,558.353577 531.701355,560.769958 527.332825,560.819092 
z"/>
</svg>